<svg width="370" height="274" viewBox="0 0 370 274" fill="none" xmlns="http://www.w3.org/2000/svg">
<g clip-path="url(#clip0_11_12479)">
<g opacity="0.3">
<path d="M255.327 152.173H216.139C214.751 152.173 213.626 153.296 213.626 154.682V163.009C213.626 164.395 214.751 165.518 216.139 165.518H255.327C256.715 165.518 257.84 164.395 257.84 163.009V154.682C257.84 153.296 256.715 152.173 255.327 152.173Z" fill="#F2F2F2"/>
<path d="M301.597 165.518H262.409C261.021 165.518 259.896 166.642 259.896 168.028V176.355C259.896 177.741 261.021 178.864 262.409 178.864H301.597C302.985 178.864 304.11 177.741 304.11 176.355V168.028C304.11 166.642 302.985 165.518 301.597 165.518Z" fill="#F2F2F2"/>
<path d="M347.871 178.868H308.683C307.295 178.868 306.17 179.991 306.17 181.377V189.704C306.17 191.09 307.295 192.213 308.683 192.213H347.871C349.259 192.213 350.384 191.09 350.384 189.704V181.377C350.384 179.991 349.259 178.868 347.871 178.868Z" fill="#F2F2F2"/>
<path d="M255.327 132.151H216.139C214.751 132.151 213.626 133.274 213.626 134.66V142.987C213.626 144.373 214.751 145.496 216.139 145.496H255.327C256.715 145.496 257.84 144.373 257.84 142.987V134.66C257.84 133.274 256.715 132.151 255.327 132.151Z" fill="#F2F2F2"/>
<path d="M301.597 145.5H262.409C261.021 145.5 259.896 146.623 259.896 148.009V156.337C259.896 157.722 261.021 158.846 262.409 158.846H301.597C302.985 158.846 304.11 157.722 304.11 156.337V148.009C304.11 146.623 302.985 145.5 301.597 145.5Z" fill="#F2F2F2"/>
<path d="M347.871 158.846H308.683C307.295 158.846 306.17 159.969 306.17 161.355V169.682C306.17 171.068 307.295 172.191 308.683 172.191H347.871C349.259 172.191 350.384 171.068 350.384 169.682V161.355C350.384 159.969 349.259 158.846 347.871 158.846Z" fill="#F2F2F2"/>
<path d="M255.327 105.459H216.139C214.751 105.459 213.626 106.583 213.626 107.968V116.296C213.626 117.682 214.751 118.805 216.139 118.805H255.327C256.715 118.805 257.84 117.682 257.84 116.296V107.968C257.84 106.583 256.715 105.459 255.327 105.459Z" fill="#F2F2F2"/>
<path d="M301.597 118.805H262.409C261.021 118.805 259.896 119.928 259.896 121.314V129.642C259.896 131.027 261.021 132.151 262.409 132.151H301.597C302.985 132.151 304.11 131.027 304.11 129.642V121.314C304.11 119.928 302.985 118.805 301.597 118.805Z" fill="#F2F2F2"/>
<path d="M347.871 132.151H308.683C307.295 132.151 306.17 133.274 306.17 134.66V142.987C306.17 144.373 307.295 145.496 308.683 145.496H347.871C349.259 145.496 350.384 144.373 350.384 142.987V134.66C350.384 133.274 349.259 132.151 347.871 132.151Z" fill="#F2F2F2"/>
<path d="M255.327 85.4372H216.139C214.751 85.4372 213.626 86.5605 213.626 87.9462V96.2738C213.626 97.6596 214.751 98.7829 216.139 98.7829H255.327C256.715 98.7829 257.84 97.6596 257.84 96.2738V87.9462C257.84 86.5605 256.715 85.4372 255.327 85.4372Z" fill="#F2F2F2"/>
<path d="M301.597 98.7829H262.409C261.021 98.7829 259.896 99.9063 259.896 101.292V109.62C259.896 111.005 261.021 112.129 262.409 112.129H301.597C302.985 112.129 304.11 111.005 304.11 109.62V101.292C304.11 99.9063 302.985 98.7829 301.597 98.7829Z" fill="#F2F2F2"/>
<path d="M347.871 112.132H308.683C307.295 112.132 306.17 113.255 306.17 114.641V122.969C306.17 124.354 307.295 125.478 308.683 125.478H347.871C349.259 125.478 350.384 124.354 350.384 122.969V114.641C350.384 113.255 349.259 112.132 347.871 112.132Z" fill="#F2F2F2"/>
<path opacity="0.1" d="M255.327 152.173H216.139C214.751 152.173 213.626 153.296 213.626 154.682V163.009C213.626 164.395 214.751 165.518 216.139 165.518H255.327C256.715 165.518 257.84 164.395 257.84 163.009V154.682C257.84 153.296 256.715 152.173 255.327 152.173Z" fill="#6750A4"/>
<path opacity="0.1" d="M301.597 165.518H262.409C261.021 165.518 259.896 166.642 259.896 168.028V176.355C259.896 177.741 261.021 178.864 262.409 178.864H301.597C302.985 178.864 304.11 177.741 304.11 176.355V168.028C304.11 166.642 302.985 165.518 301.597 165.518Z" fill="#6750A4"/>
<path opacity="0.1" d="M347.871 178.868H308.683C307.295 178.868 306.17 179.991 306.17 181.377V189.704C306.17 191.09 307.295 192.213 308.683 192.213H347.871C349.259 192.213 350.384 191.09 350.384 189.704V181.377C350.384 179.991 349.259 178.868 347.871 178.868Z" fill="#6750A4"/>
<path opacity="0.1" d="M255.327 132.151H216.139C214.751 132.151 213.626 133.274 213.626 134.66V142.987C213.626 144.373 214.751 145.496 216.139 145.496H255.327C256.715 145.496 257.84 144.373 257.84 142.987V134.66C257.84 133.274 256.715 132.151 255.327 132.151Z" fill="#6750A4"/>
<path opacity="0.1" d="M301.597 145.5H262.409C261.021 145.5 259.896 146.623 259.896 148.009V156.337C259.896 157.722 261.021 158.846 262.409 158.846H301.597C302.985 158.846 304.11 157.722 304.11 156.337V148.009C304.11 146.623 302.985 145.5 301.597 145.5Z" fill="#6750A4"/>
<path opacity="0.1" d="M347.871 158.846H308.683C307.295 158.846 306.17 159.969 306.17 161.355V169.682C306.17 171.068 307.295 172.191 308.683 172.191H347.871C349.259 172.191 350.384 171.068 350.384 169.682V161.355C350.384 159.969 349.259 158.846 347.871 158.846Z" fill="#6750A4"/>
<path opacity="0.1" d="M255.327 105.459H216.139C214.751 105.459 213.626 106.583 213.626 107.968V116.296C213.626 117.682 214.751 118.805 216.139 118.805H255.327C256.715 118.805 257.84 117.682 257.84 116.296V107.968C257.84 106.583 256.715 105.459 255.327 105.459Z" fill="#6750A4"/>
<path opacity="0.1" d="M301.597 118.805H262.409C261.021 118.805 259.896 119.928 259.896 121.314V129.642C259.896 131.027 261.021 132.151 262.409 132.151H301.597C302.985 132.151 304.11 131.027 304.11 129.642V121.314C304.11 119.928 302.985 118.805 301.597 118.805Z" fill="#6750A4"/>
<path opacity="0.1" d="M347.871 132.151H308.683C307.295 132.151 306.17 133.274 306.17 134.66V142.987C306.17 144.373 307.295 145.496 308.683 145.496H347.871C349.259 145.496 350.384 144.373 350.384 142.987V134.66C350.384 133.274 349.259 132.151 347.871 132.151Z" fill="#6750A4"/>
<path opacity="0.1" d="M255.327 85.4372H216.139C214.751 85.4372 213.626 86.5605 213.626 87.9462V96.2738C213.626 97.6596 214.751 98.7829 216.139 98.7829H255.327C256.715 98.7829 257.84 97.6596 257.84 96.2738V87.9462C257.84 86.5605 256.715 85.4372 255.327 85.4372Z" fill="#6750A4"/>
<path opacity="0.1" d="M301.597 98.7829H262.409C261.021 98.7829 259.896 99.9063 259.896 101.292V109.62C259.896 111.005 261.021 112.129 262.409 112.129H301.597C302.985 112.129 304.11 111.005 304.11 109.62V101.292C304.11 99.9063 302.985 98.7829 301.597 98.7829Z" fill="#6750A4"/>
<path opacity="0.1" d="M347.871 112.132H308.683C307.295 112.132 306.17 113.255 306.17 114.641V122.969C306.17 124.354 307.295 125.478 308.683 125.478H347.871C349.259 125.478 350.384 124.354 350.384 122.969V114.641C350.384 113.255 349.259 112.132 347.871 112.132Z" fill="#6750A4"/>
</g>
<g opacity="0.3">
<path d="M82.1644 66.7355H42.9761C41.5883 66.7355 40.4633 67.8589 40.4633 69.2446V77.5722C40.4633 78.9579 41.5883 80.0813 42.9761 80.0813H82.1644C83.5522 80.0813 84.6772 78.9579 84.6772 77.5722V69.2446C84.6772 67.8589 83.5522 66.7355 82.1644 66.7355Z" fill="#F2F2F2"/>
<path d="M128.435 80.0813H89.2464C87.8586 80.0813 86.7336 81.2047 86.7336 82.5904V90.918C86.7336 92.3037 87.8586 93.4271 89.2464 93.4271H128.435C129.822 93.4271 130.948 92.3037 130.948 90.918V82.5904C130.948 81.2047 129.822 80.0813 128.435 80.0813Z" fill="#F2F2F2"/>
<path d="M174.708 93.4304H135.52C134.132 93.4304 133.007 94.5538 133.007 95.9395V104.267C133.007 105.653 134.132 106.776 135.52 106.776H174.708C176.096 106.776 177.221 105.653 177.221 104.267V95.9395C177.221 94.5538 176.096 93.4304 174.708 93.4304Z" fill="#F2F2F2"/>
<path d="M82.1644 46.7135H42.9761C41.5883 46.7135 40.4633 47.8369 40.4633 49.2226V57.5502C40.4633 58.9359 41.5883 60.0593 42.9761 60.0593H82.1644C83.5522 60.0593 84.6772 58.9359 84.6772 57.5502V49.2226C84.6772 47.8369 83.5522 46.7135 82.1644 46.7135Z" fill="#F2F2F2"/>
<path d="M128.435 60.0627H89.2464C87.8586 60.0627 86.7336 61.186 86.7336 62.5717V70.8993C86.7336 72.2851 87.8586 73.4084 89.2464 73.4084H128.435C129.822 73.4084 130.948 72.2851 130.948 70.8993V62.5717C130.948 61.186 129.822 60.0627 128.435 60.0627Z" fill="#F2F2F2"/>
<path d="M174.708 73.4084H135.52C134.132 73.4084 133.007 74.5318 133.007 75.9175V84.2451C133.007 85.6308 134.132 86.7542 135.52 86.7542H174.708C176.096 86.7542 177.221 85.6308 177.221 84.2451V75.9175C177.221 74.5318 176.096 73.4084 174.708 73.4084Z" fill="#F2F2F2"/>
<path d="M82.1644 20.022H42.9761C41.5883 20.022 40.4633 21.1454 40.4633 22.5311V30.8587C40.4633 32.2444 41.5883 33.3678 42.9761 33.3678H82.1644C83.5522 33.3678 84.6772 32.2444 84.6772 30.8587V22.5311C84.6772 21.1454 83.5522 20.022 82.1644 20.022Z" fill="#F2F2F2"/>
<path d="M128.435 33.3678H89.2464C87.8586 33.3678 86.7336 34.4911 86.7336 35.8769V44.2044C86.7336 45.5902 87.8586 46.7135 89.2464 46.7135H128.435C129.822 46.7135 130.948 45.5902 130.948 44.2044V35.8769C130.948 34.4911 129.822 33.3678 128.435 33.3678Z" fill="#F2F2F2"/>
<path d="M174.708 46.7135H135.52C134.132 46.7135 133.007 47.8369 133.007 49.2226V57.5502C133.007 58.9359 134.132 60.0593 135.52 60.0593H174.708C176.096 60.0593 177.221 58.9359 177.221 57.5502V49.2226C177.221 47.8369 176.096 46.7135 174.708 46.7135Z" fill="#F2F2F2"/>
<path d="M82.1644 0H42.9761C41.5883 0 40.4633 1.12335 40.4633 2.50908V10.8367C40.4633 12.2224 41.5883 13.3458 42.9761 13.3458H82.1644C83.5522 13.3458 84.6772 12.2224 84.6772 10.8367V2.50908C84.6772 1.12335 83.5522 0 82.1644 0Z" fill="#F2F2F2"/>
<path d="M128.435 13.3458H89.2464C87.8586 13.3458 86.7336 14.4691 86.7336 15.8548V24.1824C86.7336 25.5682 87.8586 26.6915 89.2464 26.6915H128.435C129.822 26.6915 130.948 25.5682 130.948 24.1824V15.8548C130.948 14.4691 129.822 13.3458 128.435 13.3458Z" fill="#F2F2F2"/>
<path d="M174.708 26.6949H135.52C134.132 26.6949 133.007 27.8182 133.007 29.204V37.5316C133.007 38.9173 134.132 40.0406 135.52 40.0406H174.708C176.096 40.0406 177.221 38.9173 177.221 37.5316V29.204C177.221 27.8182 176.096 26.6949 174.708 26.6949Z" fill="#F2F2F2"/>
<path opacity="0.1" d="M82.1644 66.7355H42.9761C41.5883 66.7355 40.4633 67.8589 40.4633 69.2446V77.5722C40.4633 78.9579 41.5883 80.0813 42.9761 80.0813H82.1644C83.5522 80.0813 84.6772 78.9579 84.6772 77.5722V69.2446C84.6772 67.8589 83.5522 66.7355 82.1644 66.7355Z" fill="#6750A4"/>
<path opacity="0.1" d="M128.435 80.0813H89.2464C87.8586 80.0813 86.7336 81.2047 86.7336 82.5904V90.918C86.7336 92.3037 87.8586 93.4271 89.2464 93.4271H128.435C129.822 93.4271 130.948 92.3037 130.948 90.918V82.5904C130.948 81.2047 129.822 80.0813 128.435 80.0813Z" fill="#6750A4"/>
<path opacity="0.1" d="M174.708 93.4304H135.52C134.132 93.4304 133.007 94.5538 133.007 95.9395V104.267C133.007 105.653 134.132 106.776 135.52 106.776H174.708C176.096 106.776 177.221 105.653 177.221 104.267V95.9395C177.221 94.5538 176.096 93.4304 174.708 93.4304Z" fill="#6750A4"/>
<path opacity="0.1" d="M82.1644 46.7135H42.9761C41.5883 46.7135 40.4633 47.8369 40.4633 49.2226V57.5502C40.4633 58.9359 41.5883 60.0593 42.9761 60.0593H82.1644C83.5522 60.0593 84.6772 58.9359 84.6772 57.5502V49.2226C84.6772 47.8369 83.5522 46.7135 82.1644 46.7135Z" fill="#6750A4"/>
<path opacity="0.1" d="M128.435 60.0627H89.2464C87.8586 60.0627 86.7336 61.186 86.7336 62.5717V70.8993C86.7336 72.2851 87.8586 73.4084 89.2464 73.4084H128.435C129.822 73.4084 130.948 72.2851 130.948 70.8993V62.5717C130.948 61.186 129.822 60.0627 128.435 60.0627Z" fill="#6750A4"/>
<path opacity="0.1" d="M174.708 73.4084H135.52C134.132 73.4084 133.007 74.5318 133.007 75.9175V84.2451C133.007 85.6308 134.132 86.7542 135.52 86.7542H174.708C176.096 86.7542 177.221 85.6308 177.221 84.2451V75.9175C177.221 74.5318 176.096 73.4084 174.708 73.4084Z" fill="#6750A4"/>
<path opacity="0.1" d="M82.1644 20.022H42.9761C41.5883 20.022 40.4633 21.1454 40.4633 22.5311V30.8587C40.4633 32.2444 41.5883 33.3678 42.9761 33.3678H82.1644C83.5522 33.3678 84.6772 32.2444 84.6772 30.8587V22.5311C84.6772 21.1454 83.5522 20.022 82.1644 20.022Z" fill="#6750A4"/>
<path opacity="0.1" d="M128.435 33.3678H89.2464C87.8586 33.3678 86.7336 34.4911 86.7336 35.8769V44.2044C86.7336 45.5902 87.8586 46.7135 89.2464 46.7135H128.435C129.822 46.7135 130.948 45.5902 130.948 44.2044V35.8769C130.948 34.4911 129.822 33.3678 128.435 33.3678Z" fill="#6750A4"/>
<path opacity="0.1" d="M174.708 46.7135H135.52C134.132 46.7135 133.007 47.8369 133.007 49.2226V57.5502C133.007 58.9359 134.132 60.0593 135.52 60.0593H174.708C176.096 60.0593 177.221 58.9359 177.221 57.5502V49.2226C177.221 47.8369 176.096 46.7135 174.708 46.7135Z" fill="#6750A4"/>
<path opacity="0.1" d="M82.1644 0H42.9761C41.5883 0 40.4633 1.12335 40.4633 2.50908V10.8367C40.4633 12.2224 41.5883 13.3458 42.9761 13.3458H82.1644C83.5522 13.3458 84.6772 12.2224 84.6772 10.8367V2.50908C84.6772 1.12335 83.5522 0 82.1644 0Z" fill="#6750A4"/>
<path opacity="0.1" d="M128.435 13.3458H89.2464C87.8586 13.3458 86.7336 14.4691 86.7336 15.8548V24.1824C86.7336 25.5682 87.8586 26.6915 89.2464 26.6915H128.435C129.822 26.6915 130.948 25.5682 130.948 24.1824V15.8548C130.948 14.4691 129.822 13.3458 128.435 13.3458Z" fill="#6750A4"/>
<path opacity="0.1" d="M174.708 26.6949H135.52C134.132 26.6949 133.007 27.8182 133.007 29.204V37.5316C133.007 38.9173 134.132 40.0406 135.52 40.0406H174.708C176.096 40.0406 177.221 38.9173 177.221 37.5316V29.204C177.221 27.8182 176.096 26.6949 174.708 26.6949Z" fill="#6750A4"/>
</g>
<g opacity="0.1">
<path d="M99.9778 186.476C99.9829 188.39 99.7857 190.3 99.3893 192.173C99.3149 192.511 99.2337 192.872 99.1526 193.21C97.0658 201.574 91.1708 207.693 84.1395 208.068C83.9061 208.068 83.6694 208.088 83.4259 208.088C75.9853 208.088 69.7014 201.672 67.6282 192.865C67.5673 192.629 67.5166 192.396 67.4658 192.159C67.0695 190.286 66.8722 188.377 66.8773 186.462C66.8773 174.511 74.2841 164.85 83.4259 164.85C92.5677 164.85 99.9778 174.525 99.9778 186.476Z" fill="#3F3D56"/>
<path opacity="0.1" d="M99.9778 186.476C99.9829 188.39 99.7857 190.3 99.3893 192.173C99.3149 192.511 99.2337 192.872 99.1526 193.21C98.9023 193.21 98.6588 193.21 98.4119 193.179C96.591 193.08 94.7812 192.832 93.0006 192.44C91.4214 192.926 89.8082 193.294 88.1743 193.54C86.9212 193.723 85.6589 193.836 84.3931 193.878C83.967 193.878 83.5409 193.902 83.1147 193.902C81.5991 193.901 80.0852 193.801 78.5827 193.601C76.1579 193.275 73.7762 192.683 71.4804 191.839C70.2222 192.252 68.9403 192.591 67.6417 192.852C67.5808 192.615 67.5301 192.382 67.4793 192.146C67.083 190.273 66.8857 188.363 66.8909 186.449C66.8909 174.498 74.2976 164.836 83.4394 164.836C92.5812 164.836 99.9778 174.525 99.9778 186.476Z" fill="black"/>
<path d="M135.283 146.179C135.29 140.921 134.056 135.736 131.681 131.043L112.217 137.084L129.3 127.055C126.436 122.921 122.678 119.482 118.304 116.992C113.93 114.503 109.051 113.027 104.029 112.672C103.231 111.461 102.356 110.303 101.408 109.204L73.4282 117.893L96.3554 104.433C91.9704 101.078 86.8257 98.8532 81.3755 97.9546C75.9252 97.056 70.3373 97.5114 65.1051 99.2804C59.8729 101.049 55.1575 104.078 51.3753 108.098C47.5931 112.118 44.8606 117.006 43.419 122.33L67.3675 149.856L41.3525 131.107C34.7739 135.766 30.0904 142.63 28.1553 150.448C26.2202 158.266 27.1623 166.518 30.8099 173.701C34.4575 180.884 40.5679 186.519 48.0279 189.58C55.4879 192.642 63.8011 192.925 71.4531 190.38C78.3807 192.919 85.9503 193.127 93.0071 190.971C97.9239 192.056 103.022 192.026 107.926 190.882C112.829 189.739 117.413 187.512 121.34 184.364C125.267 181.217 128.437 177.23 130.616 172.697C132.795 168.165 133.928 163.201 133.93 158.174C133.93 157.427 133.903 156.688 133.856 155.952C134.811 152.782 135.292 149.489 135.283 146.179Z" fill="#6750A4"/>
<path opacity="0.1" d="M134.705 152.409C124.426 150.463 113.885 150.33 103.559 152.014C91.8743 153.946 79.9288 158.19 68.4973 155.087C61.7907 153.263 55.9836 149.049 49.4393 146.712C43.1172 144.503 36.3045 144.093 29.7623 145.527C27.267 151.481 26.5419 158.028 27.6737 164.383C28.8054 170.738 31.7463 176.633 36.1446 181.364C40.5428 186.095 46.2125 189.461 52.4758 191.06C58.7391 192.658 65.3309 192.422 71.4634 190.38C78.388 192.917 85.9536 193.125 93.0073 190.971C97.9241 192.056 103.022 192.026 107.926 190.882C112.829 189.739 117.414 187.512 121.341 184.364C125.268 181.217 128.437 177.23 130.616 172.697C132.795 168.165 133.928 163.201 133.931 158.174C133.931 157.427 133.903 156.688 133.856 155.952C134.204 154.787 134.487 153.604 134.705 152.409Z" fill="black"/>
</g>
<path opacity="0.1" d="M185 269.853C287.173 269.853 370 254.809 370 236.252C370 217.695 287.173 202.652 185 202.652C82.8273 202.652 0 217.695 0 236.252C0 254.809 82.8273 269.853 185 269.853Z" fill="#6750A4"/>
<path d="M245.769 240.126C246.018 239.11 246.512 238.171 247.208 237.389C247.903 236.607 248.78 236.007 249.761 235.641C250.741 235.275 251.797 235.154 252.836 235.288C253.874 235.422 254.864 235.808 255.719 236.411L255.983 236.604C261.641 240.838 258.283 248.605 255.983 248.781C253.683 248.956 249.26 249.146 249.26 249.146C249.26 249.146 244.048 246.998 245.769 240.126Z" fill="#192534"/>
<path d="M296.818 234.847V236.259C296.818 236.259 273.82 237.846 271.365 237.846H266.769C266.769 237.846 266.701 237.917 266.589 238.045C266.4 238.258 266.079 238.633 265.724 239.099C265 240.038 264.137 241.348 263.938 242.436C263.6 244.377 262.348 245.083 262.348 245.083L257.752 243.85L253.318 238.555L252.672 237.934L250.832 236.181L249.26 234.679L249.337 233.834V233.706C249.713 231.892 250.194 230.102 250.778 228.343C250.778 228.296 250.809 228.246 250.826 228.198C252.101 224.376 254.228 219.732 257.292 218.351C257.525 218.246 257.769 218.145 258.029 218.054L258.341 217.946C264.219 215.98 275.325 216.76 275.325 216.76C275.325 216.76 283.808 219.232 284.518 220.293C285.228 221.353 293.267 230.086 293.267 230.086C293.973 230.617 294.623 231.218 295.209 231.879C295.963 232.713 296.663 233.763 296.818 234.847Z" fill="#6750A4"/>
<path opacity="0.1" d="M248.56 246.498C249.927 246.498 251.035 244.759 251.035 242.614C251.035 240.47 249.927 238.731 248.56 238.731C247.192 238.731 246.084 240.47 246.084 242.614C246.084 244.759 247.192 246.498 248.56 246.498Z" fill="white"/>
<path opacity="0.1" d="M258.814 219.668C258.814 219.668 256.785 222.775 254.64 226.76C254.639 226.77 254.639 226.78 254.64 226.79C254.069 227.85 253.487 228.968 252.933 230.113L252.909 230.167C252.909 230.167 251.735 229.238 250.812 228.333C250.812 228.286 250.842 228.235 250.859 228.188C252.134 224.365 254.262 219.722 257.326 218.341C257.559 218.236 257.803 218.135 258.063 218.044L258.814 219.668Z" fill="black"/>
<path opacity="0.1" d="M252.804 230.083C252.804 230.083 265.355 233.797 267.827 232.2C267.827 232.2 268.713 220.904 262.879 220.198C262.879 220.198 259.521 219.313 258.821 219.861C258.121 220.408 252.804 230.083 252.804 230.083Z" fill="white"/>
<path opacity="0.1" d="M269.065 221.785C269.065 221.785 271.541 231.14 273.31 231.319C275.078 231.498 292.926 231.14 292.222 229.904C291.519 228.668 283.737 220.728 283.737 220.728L269.065 221.785Z" fill="white"/>
<path d="M266.028 238.711C266.028 238.711 269.241 234.493 274.899 238.731C280.557 242.969 277.196 250.733 274.899 250.908C272.603 251.084 268.199 251.263 268.199 251.263C268.199 251.263 261.222 248.399 266.028 238.711Z" fill="#192534"/>
<path d="M299.399 239.785C299.164 239.118 298.792 238.507 298.308 237.991C297.825 237.475 297.239 237.065 296.589 236.786C295.938 236.508 295.237 236.367 294.529 236.373C293.821 236.378 293.122 236.531 292.476 236.82C291.844 237.117 291.245 237.48 290.69 237.904C285.654 241.672 288.661 248.585 290.69 248.744C291.424 248.798 292.401 248.855 293.352 248.906C294.325 248.957 295.297 248.783 296.19 248.396C297.084 248.009 297.876 247.42 298.504 246.676C299.131 245.932 299.577 245.052 299.806 244.106C300.036 243.161 300.042 242.175 299.825 241.227C299.711 240.738 299.568 240.257 299.399 239.785Z" fill="#192534"/>
<path opacity="0.1" d="M267.475 248.615C268.843 248.615 269.951 246.877 269.951 244.732C269.951 242.587 268.843 240.848 267.475 240.848C266.108 240.848 265 242.587 265 244.732C265 246.877 266.108 248.615 267.475 248.615Z" fill="white"/>
<path opacity="0.1" d="M274.368 237.319C274.368 237.319 274.03 232.2 279.495 234.317C284.961 236.435 281.44 238.731 281.44 238.731L274.368 237.319Z" fill="white"/>
<path opacity="0.1" d="M296.818 234.847V235.553L295.936 235.891L294.133 235.553C294.133 235.553 293.748 232.663 295.225 231.839C295.963 232.713 296.663 233.763 296.818 234.847Z" fill="white"/>
<path opacity="0.1" d="M296.818 234.881V236.259C296.818 236.259 273.82 237.846 271.365 237.846H271.345C270.073 237.171 268.801 236.87 267.733 237.319C267.407 237.454 267.101 237.631 266.823 237.846C266.742 237.91 266.664 237.978 266.589 238.045C266.252 238.354 265.961 238.709 265.724 239.099C264.141 241.655 264.479 245.613 264.479 245.613C259.883 247.025 255.111 243.32 255.111 243.32C254.245 240.727 253.436 239.035 252.696 237.917C252.019 236.904 251.404 236.408 250.856 236.165L249.26 234.679L249.337 233.834L262.166 243.148C262.166 243.148 263.403 235.205 266.224 235.736C269.045 236.266 274.71 236.266 274.71 236.266L296.818 234.881Z" fill="black"/>
<path d="M248.56 233.787C248.56 233.787 247.498 236.435 248.56 236.614C249.621 236.793 252.006 234.587 255.1 243.85C255.1 243.85 259.873 247.565 264.469 246.143C264.469 246.143 263.921 239.437 267.733 237.846C271.544 236.256 277.902 244.202 277.902 244.202V245.968L292.929 244.377C292.929 244.377 297.525 240.848 297.349 235.378L274.723 236.789C274.723 236.789 269.065 236.789 266.238 236.259C263.41 235.729 262.179 243.688 262.179 243.688L248.56 233.787Z" fill="#6750A4"/>
<path d="M184.926 185.513H184.922C179.7 185.513 175.466 189.741 175.466 194.955V194.959C175.466 200.173 179.7 204.401 184.922 204.401H184.926C190.148 204.401 194.382 200.173 194.382 194.959V194.955C194.382 189.741 190.148 185.513 184.926 185.513Z" fill="#192534"/>
<path d="M179.971 219.259C181.239 218.148 182.528 217.017 183.441 215.602C184.28 214.305 184.773 212.823 185.237 211.351C186.56 207.143 187.7 202.882 188.656 198.569C183.451 197.775 179.565 193.186 174.475 191.838C174.353 191.805 170.46 215.16 170.176 217.294C169.943 219.057 167.927 227.476 170.224 227.523C171.451 227.55 174.015 224.484 174.921 223.676L179.971 219.259Z" fill="#3F3D56"/>
<path opacity="0.1" d="M179.971 219.259C181.239 218.148 182.528 217.017 183.441 215.602C184.28 214.305 184.773 212.823 185.237 211.351C186.56 207.143 187.7 202.882 188.656 198.569C183.451 197.775 179.565 193.186 174.475 191.838C174.353 191.805 170.46 215.16 170.176 217.294C169.943 219.057 167.927 227.476 170.224 227.523C171.451 227.55 174.015 224.484 174.921 223.676L179.971 219.259Z" fill="black"/>
<path d="M115.647 160.331C115.072 160.419 114.463 160.463 113.99 160.797C113.313 161.27 113.141 162.148 112.82 162.911C112.398 163.891 111.683 164.717 110.773 165.275C109.999 165.748 109.055 166.066 108.592 166.842C108.33 167.365 108.206 167.946 108.23 168.531C108.169 170.261 108.247 171.993 108.463 173.711C108.572 174.572 108.714 175.45 108.534 176.298C108.328 177.287 107.706 178.128 107.114 178.949C105.694 180.911 104.303 183.065 104.188 185.483C104.131 186.699 104.402 187.945 104.094 189.123C103.549 191.214 101.331 192.578 100.898 194.692C100.769 195.317 100.803 195.979 100.56 196.563C100.133 197.576 98.9598 198.13 98.6588 199.173C98.4322 199.957 98.7636 200.784 98.7873 201.598C98.8211 202.79 98.1954 203.891 97.5934 204.917L94.0727 210.895C92.9295 212.833 91.7593 214.859 91.5665 217.102C91.3941 219.091 92.013 221.059 92.6928 222.937C94.2046 227.107 96.4503 231.525 100.593 233.129C103.032 234.074 105.748 233.872 108.355 233.655C111.927 233.362 115.522 233.061 118.968 232.085C120.676 231.602 122.35 230.957 124.075 230.613C125.225 230.387 126.405 230.275 127.515 229.907C128.713 229.477 129.774 228.732 130.586 227.752C131.397 226.772 131.93 225.591 132.128 224.335C133.602 224.916 134.969 222.984 134.759 221.417C134.549 219.85 133.494 218.523 133.068 217.004C132.459 214.907 133.068 212.63 134.083 210.699C135.097 208.767 136.498 207.058 137.603 205.178C138.836 203.072 139.692 200.768 140.133 198.37C140.725 195.131 140.546 191.805 140.363 188.519L139.667 175.96C139.538 173.66 139.393 171.286 138.378 169.206C137.265 166.94 135.236 165.279 133.21 163.769C130.221 161.498 127.085 159.425 123.825 157.562C121.721 156.387 121.87 156.843 120.196 158.238C118.899 159.337 117.326 160.061 115.647 160.331Z" fill="#3F3D56"/>
<path d="M144.077 195.273C141.686 197.157 139.264 199.069 137.424 201.493C135.202 204.441 133.941 208.001 133.812 211.688C133.791 213.414 133.912 215.139 134.174 216.845C134.536 219.631 135.189 222.734 137.539 224.274C139.021 225.243 141.057 225.487 142.068 226.939C142.386 227.395 142.572 227.952 142.944 228.354C143.62 229.083 144.675 229.242 145.649 229.296C147.105 229.377 148.565 229.332 150.012 229.161C151.666 228.961 153.347 228.6 154.984 228.911C158.17 229.509 160.548 232.511 163.777 232.912C166.459 233.25 168.972 231.693 171.218 230.211C173.535 228.681 175.953 227.043 177.208 224.568C178.429 222.164 178.361 219.334 178.266 216.636C178.161 213.64 178.053 210.608 177.252 207.717C177.002 206.96 176.811 206.186 176.68 205.4C176.44 203.374 177.356 201.382 178.033 199.443C179.085 196.495 179.545 192.862 177.455 190.532C176.572 189.546 175.344 188.938 174.1 188.505C168.604 186.533 162.536 187.283 156.898 188.168C151.517 188.982 148.298 191.953 144.077 195.273Z" fill="#3F3D56"/>
<path d="M190.682 183.602C188.504 186.868 186.319 190.157 184.746 193.733C183.674 196.329 182.77 198.991 182.041 201.703C179.869 209.196 177.715 216.852 173.379 223.339C172.757 224.271 172.067 225.24 172.003 226.358C171.942 227.405 172.442 228.384 172.926 229.316C173.941 231.288 175.003 233.281 176.45 234.976C177.898 236.671 179.629 237.954 181.374 239.265C184.997 241.966 189.021 244.83 193.55 244.627C194.487 244.583 195.488 244.367 196.113 243.668C196.739 242.969 196.827 242.003 196.716 241.105C196.377 238.326 194.28 236.141 192.38 234.081C190.479 232.021 188.568 229.613 188.72 226.804C188.839 224.484 190.361 222.505 191.818 220.695C193.486 218.621 195.156 216.551 196.729 214.407C203.53 205.137 208.441 194.597 212.334 183.781C213.974 179.215 215.466 174.42 214.955 169.598C211.235 168.686 203.794 165.64 200.652 168.784C198.748 170.689 197.402 173.512 195.917 175.757L190.682 183.602Z" fill="#FBBEBE"/>
<path d="M222.095 151.896C219.738 156.001 217.893 160.378 216.602 164.931C216.288 166.032 216.007 167.193 216.247 168.308C216.507 169.503 217.323 170.486 217.938 171.54C218.554 172.593 218.987 173.927 218.429 175.014C215.79 175.22 213.176 174.501 210.626 173.789L202.631 171.56C201.968 171.433 201.347 171.145 200.821 170.722C199.895 169.848 199.966 168.379 200.145 167.123C201.711 156.836 206.74 147.354 208.624 137.125C208.898 135.649 209.185 134.015 210.362 133.073C213.744 130.405 221.401 132.664 223.153 136.527C225.112 140.816 224.31 148.043 222.095 151.896Z" fill="#6750A4"/>
<path d="M179.294 116.742C178.993 116.897 178.655 117.079 178.564 117.397C178.544 117.57 178.562 117.745 178.616 117.91C178.671 118.075 178.762 118.226 178.882 118.352L182.294 123.148C185.66 127.875 189.031 132.634 192.924 136.946C195.863 140.199 199.081 143.189 202.543 145.881C203.517 146.638 204.555 147.425 205.032 148.563C202.905 142.274 203.283 135.41 206.087 129.392C207.203 127.028 208.678 124.836 209.838 122.486C209.947 122.357 210.022 122.202 210.053 122.035C210.085 121.869 210.073 121.698 210.019 121.537C209.965 121.377 209.871 121.233 209.745 121.12C209.619 121.007 209.466 120.929 209.3 120.892C206.344 119.372 203.111 118.454 200.169 116.907C197.859 115.691 195.772 114.111 193.699 112.554C191.849 111.166 189.387 108.715 187.104 108.13C184.638 107.495 184.736 109.741 183.941 111.615C183.027 113.806 181.387 115.616 179.294 116.742Z" fill="#FBBEBE"/>
<path opacity="0.1" d="M179.294 116.742C178.993 116.897 178.655 117.079 178.564 117.397C178.544 117.57 178.562 117.745 178.616 117.91C178.671 118.075 178.762 118.226 178.882 118.352L182.294 123.148C185.66 127.875 189.031 132.634 192.924 136.946C195.863 140.199 199.081 143.189 202.543 145.881C203.517 146.638 204.555 147.425 205.032 148.563C202.905 142.274 203.283 135.41 206.087 129.392C207.203 127.028 208.678 124.836 209.838 122.486C209.947 122.357 210.022 122.202 210.053 122.035C210.085 121.869 210.073 121.698 210.019 121.537C209.965 121.377 209.871 121.233 209.745 121.12C209.619 121.007 209.466 120.929 209.3 120.892C206.344 119.372 203.111 118.454 200.169 116.907C197.859 115.691 195.772 114.111 193.699 112.554C191.849 111.166 189.387 108.715 187.104 108.13C184.638 107.495 184.736 109.741 183.941 111.615C183.027 113.806 181.387 115.616 179.294 116.742Z" fill="black"/>
<path d="M200.219 135.852C198.674 134.109 196.587 132.958 194.757 131.512C192.126 129.432 190.046 126.751 188.037 124.066C184.351 119.126 180.634 113.074 182.47 107.181C180.519 106.992 178.834 108.593 177.915 110.319C176.995 112.044 176.521 114.01 175.375 115.593C173.633 118.001 170.67 119.122 167.91 120.223C161.844 122.647 155.983 125.555 150.384 128.919C148.135 130.27 145.896 131.718 144.178 133.697C142.338 135.808 141.185 138.425 139.623 140.738C136.579 145.287 131.952 148.701 126.818 150.633C125.127 151.274 123.314 151.774 121.802 152.794C118.562 154.979 117.213 159.335 117.981 163.165C118.748 166.994 121.363 170.256 124.505 172.573C127.647 174.89 131.225 176.257 134.85 177.608C137.89 178.722 140.948 179.785 144.026 180.796C146.291 181.578 148.606 182.206 150.956 182.673C155.282 183.467 159.729 183.271 164.102 183.754C168.1 184.193 172.026 185.203 176.041 185.483C180.055 185.763 184.307 185.23 187.577 182.896C190.178 181.042 191.91 178.243 193.509 175.467C197.662 168.31 201.371 160.905 204.616 153.294C205.573 151.041 214.455 138.283 212.243 136.635C201.105 128.338 204.802 141.522 203.74 140.509C202.32 139.151 201.505 137.301 200.219 135.852Z" fill="#6750A4"/>
<path d="M186.424 128.22C184.033 123.418 182.416 118.278 180.81 113.165C180.367 111.747 179.92 110.214 180.397 108.809C180.972 107.121 182.812 105.679 182.271 103.987C177.969 105.338 172.973 107.455 172.124 111.882C171.938 112.848 171.972 113.878 171.522 114.749C170.646 116.458 168.414 116.823 166.517 117.113C160.997 117.994 155.512 120.216 151.73 124.326C151.095 125.002 150.496 125.768 149.701 126.275C149.126 126.613 148.515 126.885 147.878 127.085C144.178 128.412 140.373 130.067 137.992 133.191C136.765 134.798 135.98 136.726 134.61 138.219C132.757 140.245 130.028 141.258 128.022 143.146C126.669 144.402 125.705 145.996 124.812 147.607C121.376 153.807 118.857 161.078 120.68 167.93C121.63 171.513 123.723 174.704 124.85 178.236C126.402 183.048 126.25 188.536 129.162 192.673C130.998 195.273 133.839 196.992 136.748 198.288C143.22 201.163 150.33 202.306 157.379 201.605C159.992 201.301 162.589 200.864 165.157 200.294C171.289 199.031 177.485 197.657 183.055 194.8C192.556 189.927 199.391 181.218 205.918 172.776C207.159 171.168 208.411 169.547 209.3 167.71C210.169 165.957 210.694 164.06 211.279 162.196C213.257 155.911 216.041 149.653 215.78 143.075C215.791 142.287 215.635 141.506 215.324 140.782C215.06 140.242 214.647 139.769 214.414 139.225C214.001 138.253 214.187 137.128 213.897 136.112C213.088 133.275 209.354 132.735 206.398 132.759L205.451 149.404C205.306 151.903 205.039 154.675 203.175 156.35C202.378 157.035 201.383 157.448 200.335 157.53C199.286 157.612 198.239 157.358 197.345 156.806C195.356 155.519 195.075 153.274 195.089 151.122C195.109 148.421 194.889 145.946 194.027 143.355C192.241 137.983 188.933 133.268 186.424 128.22Z" fill="#192534"/>
<path d="M187.601 175.653C199.377 181.613 211.221 187.617 221.76 195.553C224.195 197.383 226.562 199.322 229.136 200.956C236.513 205.637 245.664 207.916 251.356 214.535C252.554 215.923 253.568 217.483 254.948 218.685C256.146 219.667 257.484 220.464 258.919 221.049C263.492 223.064 268.443 224.079 273.441 224.024C274.75 224.007 276.096 223.91 277.273 223.349C280.442 221.816 281.163 217.709 281.484 214.207C281.592 213.022 281.616 211.624 280.683 210.888C280.179 210.493 279.512 210.392 278.88 210.294C268.595 208.673 259.105 203.729 250.511 197.856C241.917 191.984 234.04 185.128 225.565 179.087C222.585 176.963 219.534 174.94 216.484 172.917L206.612 166.373C201.39 162.911 195.89 159.345 189.654 158.694C189.299 158.632 188.935 158.656 188.592 158.765C188.044 158.977 187.739 159.545 187.472 160.065C185.643 163.624 183.414 166.856 181.171 170.152C179.971 171.914 179.836 172.37 181.905 173.312C183.769 174.163 185.744 174.714 187.601 175.653Z" fill="#FBBEBE"/>
<path d="M210.741 274C210.876 274 211.005 273.947 211.1 273.852C211.195 273.757 211.248 273.628 211.248 273.493C211.248 273.359 211.195 273.23 211.1 273.135C211.005 273.04 210.876 272.987 210.741 272.987C210.606 272.987 210.477 273.04 210.382 273.135C210.287 273.23 210.234 273.359 210.234 273.493C210.234 273.628 210.287 273.757 210.382 273.852C210.477 273.947 210.606 274 210.741 274Z" fill="black"/>
<path d="M214.441 139.536C232.307 139.536 246.791 125.075 246.791 107.235C246.791 89.3963 232.307 74.9348 214.441 74.9348C196.575 74.9348 182.091 89.3963 182.091 107.235C182.091 125.075 196.575 139.536 214.441 139.536Z" fill="#FBBEBE"/>
<path d="M189.015 119.832C189.589 116.931 192.924 115.465 195.877 115.269C198.864 115.109 201.842 115.737 204.509 117.091C207.176 118.445 209.439 120.477 211.069 122.982C211.753 121.172 212.214 119.285 212.442 117.363L217.854 117.765C218.458 117.858 219.075 117.802 219.653 117.603C220.35 117.292 220.779 116.59 221.141 115.914C223.508 111.501 225.091 106.084 229.535 103.757V109.836C230.752 109.599 231.898 109.087 232.885 108.338C233.872 107.589 234.673 106.624 235.227 105.517C235.532 107.199 236.018 108.844 236.675 110.423C236.783 110.687 236.935 110.977 237.209 111.045C237.343 111.054 237.477 111.036 237.603 110.99C237.729 110.944 237.844 110.871 237.94 110.778C240.012 109.208 241.887 107.393 243.524 105.375L249.95 116.498C253.662 107.137 253.865 96.7527 250.521 87.2543C247.176 77.7558 240.51 69.7824 231.747 64.8005C230.261 63.9459 228.711 63.2086 227.11 62.5954C222.927 61.0217 218.418 60.5186 213.957 60.2146C207.616 59.7824 200.923 59.7993 195.356 62.8351C192.363 64.4662 189.877 66.8706 187.476 69.2885C184.229 72.5507 180.982 75.9985 179.254 80.2636C178.06 83.2084 177.651 86.3996 177.289 89.5537C177.069 91.4617 176.866 93.4338 177.411 95.2743C177.789 96.5474 178.503 97.6922 178.983 98.9315C179.781 100.991 179.907 103.241 180.214 105.429C180.897 110.265 182.479 114.931 184.878 119.187C185.386 120.088 186.035 121.047 187.046 121.277C188.057 121.506 189.272 120.392 188.737 119.514" fill="#192534"/>
<path d="M189.015 119.832C189.589 116.931 192.924 115.465 195.877 115.269C198.864 115.109 201.842 115.737 204.509 117.091C207.176 118.445 209.439 120.477 211.069 122.982C211.753 121.172 212.214 119.285 212.442 117.363L217.854 117.765C218.458 117.858 219.075 117.802 219.653 117.603C220.35 117.292 220.779 116.59 221.141 115.914C223.508 111.501 225.091 106.084 229.535 103.757V109.836C230.752 109.599 231.898 109.087 232.885 108.338C233.872 107.589 234.673 106.624 235.227 105.517C235.532 107.199 236.018 108.844 236.675 110.423C236.783 110.687 236.935 110.977 237.209 111.045C237.343 111.054 237.477 111.036 237.603 110.99C237.729 110.944 237.844 110.871 237.94 110.778C240.012 109.208 241.887 107.393 243.524 105.375L249.95 116.498C253.662 107.137 253.865 96.7527 250.521 87.2543C247.176 77.7558 240.51 69.7824 231.747 64.8005C230.261 63.9459 228.711 63.2086 227.11 62.5954C222.927 61.0217 218.418 60.5186 213.957 60.2146C207.616 59.7824 200.923 59.7993 195.356 62.8351C192.363 64.4662 189.877 66.8706 187.476 69.2885C184.229 72.5507 180.982 75.9985 179.254 80.2636C178.06 83.2084 177.651 86.3996 177.289 89.5537C177.069 91.4617 176.866 93.4338 177.411 95.2743C177.789 96.5474 178.503 97.6922 178.983 98.9315C179.781 100.991 179.907 103.241 180.214 105.429C180.897 110.265 182.479 114.931 184.878 119.187C185.386 120.088 186.035 121.047 187.046 121.277C188.057 121.506 189.272 120.392 188.737 119.514" stroke="black" stroke-miterlimit="10"/>
<path d="M151.886 150.832C153.192 154.415 156.472 156.846 159.584 159.062L167.701 164.843C169.858 166.38 172.074 167.974 173.477 170.216C171.424 170.993 170.487 173.627 171.161 175.714C171.834 177.8 173.765 179.296 175.868 179.972C177.972 180.647 180.204 180.624 182.399 180.499C184.919 180.36 187.557 180.056 189.637 178.628L185.068 175.818C183.864 175.072 182.48 173.883 182.92 172.543L187.739 172.495C188.247 172.495 188.798 172.472 189.201 172.158C189.603 171.844 189.742 171.361 189.911 170.901C190.627 169.044 191.851 167.425 193.442 166.226C195.033 165.028 196.929 164.298 198.914 164.12C200.104 164.033 201.474 164.083 202.296 163.199C202.83 162.611 202.945 161.767 203.04 160.98C203.219 159.48 203.395 157.941 203.098 156.472C202.8 155.003 201.941 153.544 200.561 152.926C199.546 152.467 198.373 152.51 197.263 152.362C192.16 151.686 188.622 147.067 185.883 142.714C183.143 138.361 180.204 133.545 175.32 131.924C173.795 131.469 172.214 131.227 170.623 131.205C167.102 131.06 163.476 131.347 160.27 132.806C154.294 135.524 149.559 144.456 151.886 150.832Z" fill="#6750A4"/>
<path opacity="0.1" d="M249.98 110.487L243.554 99.3637C241.918 101.383 240.043 103.198 237.97 104.767C237.875 104.862 237.76 104.935 237.634 104.981C237.508 105.028 237.374 105.047 237.24 105.037C236.966 104.969 236.814 104.679 236.705 104.416C236.048 102.835 235.563 101.189 235.258 99.5056C234.704 100.614 233.903 101.58 232.916 102.329C231.929 103.079 230.783 103.592 229.566 103.828V97.7495C225.122 100.083 223.552 105.5 221.171 109.907C220.81 110.582 220.38 111.274 219.683 111.595C219.106 111.795 218.488 111.85 217.884 111.757L212.473 111.355C212.245 113.277 211.783 115.164 211.1 116.975C209.469 114.47 207.206 112.438 204.539 111.084C201.872 109.73 198.895 109.101 195.907 109.262C192.955 109.457 189.62 110.923 189.045 113.824L188.757 113.506C189.302 114.388 188.081 115.502 187.066 115.273C186.052 115.043 185.406 114.084 184.899 113.182C182.506 108.922 180.931 104.252 180.255 99.4144C179.947 97.2261 179.822 94.977 179.024 92.9171C178.544 91.6778 177.83 90.533 177.451 89.2599C177.451 89.216 177.428 89.1754 177.417 89.1315C177.387 89.3848 177.356 89.6381 177.329 89.8913C177.11 91.8027 176.907 93.7715 177.451 95.6322C177.83 96.9053 178.544 98.0501 179.024 99.2861C179.822 101.349 179.947 103.595 180.255 105.787C180.93 110.624 182.505 115.292 184.899 119.551C185.406 120.453 186.055 121.415 187.066 121.645C188.078 121.875 189.292 120.76 188.757 119.879L189.045 120.193C189.62 117.295 192.955 115.826 195.907 115.634C198.895 115.472 201.872 116.1 204.539 117.453C207.207 118.807 209.469 120.838 211.1 123.344C211.784 121.534 212.245 119.648 212.473 117.728L217.884 118.126C218.488 118.221 219.106 118.165 219.683 117.964C220.38 117.653 220.81 116.951 221.171 116.276C223.539 111.858 225.122 106.445 229.566 104.118V110.197C230.783 109.961 231.929 109.448 232.916 108.698C233.903 107.949 234.704 106.983 235.258 105.875C235.563 107.558 236.049 109.204 236.705 110.785C236.814 111.045 236.966 111.338 237.24 111.403C237.374 111.414 237.508 111.396 237.634 111.35C237.761 111.304 237.875 111.231 237.97 111.136C240.043 109.566 241.918 107.752 243.554 105.733L249.98 116.856C252.297 110.954 253.251 104.605 252.77 98.2831C252.459 102.468 251.519 106.582 249.98 110.487Z" fill="black"/>
</g>
<defs>
<clipPath id="clip0_11_12479">
<rect width="370" height="274" fill="white"/>
</clipPath>
</defs>
</svg>
