<svg width="689" height="727" viewBox="0 0 689 727" fill="none" xmlns="http://www.w3.org/2000/svg">
<g clip-path="url(#clip0_756_172179)">
<path d="M20.4449 332.377C2.37588 370.511 0.625244 374.518 0.625244 377.461C0.625244 381.719 1.75065 384.224 4.87679 387.042C7.75283 389.671 11.6918 390.986 14.8804 390.36C16.0683 390.172 32.4493 383.222 51.3311 375.019L85.5936 360.054L91.0956 361.557C134.549 373.266 177.815 403.51 207.763 443.146C222.268 462.307 231.334 479.151 237.836 499.313C243.588 517.221 247.59 540.139 247.59 555.48V562.243H254.717C258.594 562.243 263.158 562.055 264.784 561.804L267.785 561.429L267.41 552.6C265.784 517.096 255.655 481.718 239.212 454.417C211.139 407.58 169.999 371.325 122.169 351.35C108.852 345.715 92.9713 340.893 85.6561 340.204C82.2799 339.891 81.7172 340.079 56.2704 351.225C42.0153 357.487 29.6983 362.872 28.948 363.185C27.635 363.686 27.635 363.56 29.3857 359.803C33.5747 350.536 52.5816 310.837 53.0193 310.399C53.3319 310.086 73.6517 309.961 98.2232 310.023L142.864 310.211L131.923 315.972C125.921 319.103 120.169 322.171 119.106 322.734L117.23 323.799L130.672 327.744C150.492 333.442 162.934 338.514 179.128 347.343C214.265 366.441 241.338 389.358 263.346 418.475C266.472 422.608 269.16 426.177 269.223 426.302C269.41 426.49 282.978 416.659 284.728 415.031C285.979 413.904 270.598 394.994 257.593 381.657C234.21 357.674 211.764 341.394 180.753 325.803L167.998 319.416L172.625 317.099C180.44 313.154 182.879 310.587 184.129 305.076C184.755 302.008 183.004 296.811 180.566 294.432C176.064 290.174 181.566 290.487 107.414 290.487H40.3272L20.4449 332.377Z" fill="white"/>
<path d="M512.373 291.676C507.434 293.868 504.808 298.69 505.308 304.638C505.746 309.585 507.747 312.215 513.874 315.533C516.687 317.099 519.438 318.664 519.939 318.977C520.689 319.541 518.25 320.981 508.184 325.99C479.424 340.33 456.791 356.485 434.783 378.463C423.028 390.172 418.402 395.432 409.273 407.517L403.896 414.593L411.774 420.541C416.088 423.797 419.84 426.24 420.09 425.926C420.34 425.676 421.966 423.61 423.591 421.355C444.974 392.802 471.358 369.446 502.932 351.225C520.939 340.83 537.82 333.692 558.015 327.931C565.393 325.803 571.457 323.861 571.457 323.674C571.457 323.486 565.955 320.543 559.265 317.099C552.575 313.655 547.073 310.649 547.073 310.336C547.073 310.086 567.143 309.898 591.652 309.898H636.231L648.86 336.573C655.8 351.287 661.427 363.372 661.365 363.435C661.24 363.56 648.923 358.238 633.98 351.726C616.161 343.899 606.157 339.829 604.907 339.891C601.468 340.079 589.401 343.21 580.523 346.216C528.754 363.873 483.3 400.942 451.976 450.973C434.595 478.775 423.716 514.905 422.028 550.659C421.778 556.482 421.653 561.429 421.778 561.554C421.903 561.679 426.342 561.93 431.594 562.118L441.223 562.431L441.598 553.101C442.536 532.813 446.85 511.461 454.04 491.549C463.168 466.377 484.176 435.82 507.434 414.029C533.381 389.734 564.392 371.45 595.153 362.433L603.469 359.991L637.356 374.769C655.925 382.909 672.369 389.859 673.807 390.172C681.31 391.863 688.687 385.539 688.625 377.524C688.625 374.33 687.187 371.074 668.805 332.44L649.048 290.8L581.961 290.675C518 290.487 514.749 290.549 512.373 291.676Z" fill="white"/>
<path d="M333.996 363.122C326.494 365.126 321.117 368.319 315.114 374.393C311.301 378.15 309.05 381.03 307.424 384.224C295.482 407.329 306.799 435.507 331.37 443.96C337.56 446.089 348.877 446.339 355.442 444.586C363.132 442.457 368.446 439.326 374.198 433.566C383.514 424.236 388.016 411.712 386.39 399.252C384.327 382.721 374.261 370.01 358.755 364.249C354.254 362.621 352.503 362.308 346.063 362.12C339.998 361.932 337.685 362.12 333.996 363.122ZM349.564 382.157C356.442 383.723 361.881 388.294 365.07 394.994C366.446 397.937 366.696 399.377 366.696 403.823C366.696 408.582 366.446 409.646 364.695 413.278C362.257 418.225 358.318 422.044 353.378 424.361C350.377 425.739 348.939 426.052 344.5 426.052C340.061 426.052 338.623 425.739 335.622 424.361C324.493 419.164 319.303 406.014 324.055 394.931C326.619 389.045 332.496 383.973 338.873 382.283C343.187 381.093 345.188 381.093 349.564 382.157Z" fill="white"/>
<path d="M297.796 457.673C287.917 460.053 280.789 468.694 280.289 478.963C279.852 486.915 284.916 564.622 286.041 567.878C288.542 575.079 294.732 580.84 302.485 583.157C305.423 584.096 306.424 584.66 306.611 585.661C306.799 586.413 307.612 608.329 308.55 634.502C309.737 667.627 310.488 682.842 311.05 684.721C312.801 690.607 316.74 695.428 321.929 698.058C326.118 700.25 331.683 700.751 347.501 700.5C362.257 700.25 362.319 700.25 366.195 698.497C371.26 696.18 375.699 691.546 377.575 686.599C378.888 683.093 379.013 680.4 380.763 634.064C381.764 607.202 382.764 585.035 383.077 584.785C383.327 584.534 385.64 583.533 388.141 582.593C390.704 581.654 393.893 579.963 395.331 578.899C399.145 575.956 402.459 570.821 403.584 566C404.459 561.992 409.024 491.048 409.086 480.528C409.086 471.136 404.397 463.622 395.894 459.426L391.705 457.36L345.751 457.235C320.491 457.235 298.921 457.36 297.796 457.673ZM388.516 478.086C389.079 478.587 389.516 479.526 389.516 480.09C389.516 480.653 388.391 499.313 387.016 521.542C384.702 559.926 384.515 561.992 383.264 562.994C382.576 563.558 378.95 565.061 375.136 566.313C371.385 567.565 367.571 569.131 366.696 569.882C363.132 572.637 363.319 570.821 361.256 626.926C360.131 657.608 359.068 679.336 358.755 679.837C357.817 680.901 331.058 680.964 330.37 679.837C330.12 679.399 328.994 655.542 327.932 626.738C326.681 593.05 325.743 574.015 325.306 573.201C323.618 570.195 320.867 568.505 313.364 565.937C307.612 563.996 305.486 562.994 305.048 561.992C304.736 561.241 303.423 542.519 302.047 520.29C299.921 484.911 299.734 479.714 300.484 478.462L301.359 477.084H344.5C382.827 477.084 387.641 477.21 388.516 478.086Z" fill="white"/>
</g>
<path d="M92.5756 224.911C79.9757 224.911 68.7208 222.504 58.8107 217.691C49.0423 212.878 41.3974 206.153 35.8761 197.517C30.3548 188.881 27.5941 179.042 27.5941 167.999V128.926C27.5941 117.883 30.284 108.114 35.6637 99.6202C41.185 90.9843 48.7591 84.3304 58.386 79.6586C68.0129 74.8451 79.0555 72.4384 91.5138 72.4384C103.972 72.4384 115.015 74.3496 124.642 78.172C134.41 81.8529 141.984 87.0911 147.364 93.8865C152.744 100.54 155.433 108.185 155.433 116.821C155.433 122.059 153.664 126.236 150.125 129.35C146.727 132.323 142.126 133.81 136.321 133.81C133.49 133.81 130.375 133.385 126.978 132.536C127.261 129.138 127.402 125.811 127.402 122.555C127.402 115.051 124.075 108.964 117.421 104.292C110.768 99.6202 102.132 97.2842 91.5138 97.2842C81.0375 97.2842 72.4724 100.257 65.8185 106.203C59.3062 112.008 56.0501 119.582 56.0501 128.926V167.999C56.0501 177.485 59.4478 185.2 66.2432 191.146C73.0387 197.092 81.8161 200.065 92.5756 200.065C103.193 200.065 111.829 197.729 118.483 193.058C125.137 188.386 128.464 182.369 128.464 175.007C128.464 171.609 128.322 168.353 128.039 165.239C131.579 164.531 134.552 164.177 136.958 164.177C142.904 164.177 147.647 165.734 151.186 168.849C154.726 171.963 156.495 176.211 156.495 181.59C156.495 189.943 153.805 197.446 148.426 204.1C143.046 210.612 135.472 215.709 125.703 219.39C116.077 223.071 105.034 224.911 92.5756 224.911ZM176.998 92.8247C176.998 86.3124 179.263 81.2866 183.793 77.7473C188.323 74.208 194.836 72.4384 203.33 72.4384V127.651C201.49 129.633 199.791 131.899 198.234 134.447L199.508 135.296C209.276 121.705 221.734 114.91 236.883 114.91C244.103 114.91 250.474 116.538 255.995 119.794C261.516 123.05 265.763 127.51 268.736 133.173C271.851 138.836 273.408 145.206 273.408 152.285V208.772C273.408 214.435 271.214 218.54 266.825 221.089C262.436 223.637 255.782 224.911 246.863 224.911V156.107C246.863 150.728 245.235 146.339 241.979 142.941C238.865 139.543 234.264 137.845 228.176 137.845C220.956 137.845 215.01 140.11 210.338 144.64C205.666 149.029 203.33 154.55 203.33 161.204V208.772C203.33 214.435 201.136 218.54 196.747 221.089C192.358 223.637 185.775 224.911 176.998 224.911V92.8247ZM336.684 224.911C327.482 224.911 319.129 223.283 311.626 220.027C304.264 216.629 298.46 211.957 294.213 206.011C289.965 200.065 287.842 193.341 287.842 185.837V155.895C287.842 148.25 289.895 141.313 294 135.084C298.247 128.855 304.052 123.971 311.414 120.431C318.775 116.75 327.199 114.91 336.684 114.91C346.169 114.91 354.593 116.75 361.955 120.431C369.458 123.971 375.262 128.855 379.368 135.084C383.615 141.313 385.739 148.25 385.739 155.895V185.837C385.739 193.341 383.544 200.065 379.156 206.011C374.909 211.957 369.033 216.629 361.53 220.027C354.168 223.283 345.886 224.911 336.684 224.911ZM336.684 202.189C343.763 202.189 349.284 200.561 353.248 197.305C357.354 194.049 359.406 189.66 359.406 184.139V157.169C359.406 151.365 357.354 146.693 353.248 143.154C349.284 139.473 343.763 137.632 336.684 137.632C329.747 137.632 324.226 139.473 320.12 143.154C316.015 146.693 313.962 151.365 313.962 157.169V184.139C313.962 189.66 316.015 194.049 320.12 197.305C324.226 200.561 329.747 202.189 336.684 202.189ZM418.594 104.929C413.498 104.929 409.251 103.443 405.853 100.47C402.597 97.355 400.969 93.391 400.969 88.5776C400.969 83.9057 402.597 80.0833 405.853 77.1103C409.251 73.9957 413.498 72.4384 418.594 72.4384C423.691 72.4384 427.867 73.9957 431.124 77.1103C434.521 80.0833 436.22 83.9057 436.22 88.5776C436.22 93.391 434.521 97.355 431.124 100.47C427.867 103.443 423.691 104.929 418.594 104.929ZM405.216 131.049C405.216 125.245 407.41 121.139 411.799 118.732C416.188 116.184 422.842 114.91 431.761 114.91V208.772C431.761 214.435 429.566 218.54 425.178 221.089C420.789 223.637 414.135 224.911 405.216 224.911V131.049ZM506.973 224.911C497.771 224.911 489.631 223.283 482.552 220.027C475.474 216.629 469.952 211.957 465.988 206.011C462.024 200.065 460.042 193.341 460.042 185.837V156.107C460.042 148.038 462.024 140.888 465.988 134.659C469.952 128.43 475.474 123.617 482.552 120.219C489.631 116.68 497.7 114.91 506.761 114.91C515.255 114.91 522.759 116.113 529.271 118.52C535.925 120.927 541.092 124.324 544.773 128.713C548.454 132.96 550.294 137.915 550.294 143.578C550.294 147.967 548.596 151.506 545.198 154.196C541.8 156.886 537.341 158.231 531.819 158.231C530.262 158.231 529.129 158.16 528.422 158.019C528.422 151.931 526.44 147.047 522.476 143.366C518.653 139.685 513.627 137.845 507.398 137.845C501.169 137.845 496.072 139.614 492.108 143.154C488.286 146.693 486.375 151.365 486.375 157.169V183.926C486.375 189.306 488.357 193.695 492.321 197.092C496.285 200.349 501.381 201.977 507.61 201.977C513.84 201.977 518.936 200.136 522.9 196.455C526.864 192.633 528.846 187.819 528.846 182.015C529.696 181.873 530.899 181.803 532.456 181.803C537.978 181.803 542.437 183.077 545.835 185.625C549.233 188.173 550.931 191.642 550.931 196.031C550.931 201.693 549.02 206.719 545.198 211.108C541.517 215.355 536.35 218.753 529.696 221.301C523.042 223.708 515.468 224.911 506.973 224.911ZM617.522 224.911C608.745 224.911 600.746 223.212 593.526 219.815C586.306 216.275 580.572 211.533 576.325 205.587C572.078 199.499 569.954 192.704 569.954 185.2V156.957C569.954 149.029 572.148 141.879 576.537 135.509C580.926 129.138 586.73 124.112 593.95 120.431C601.312 116.75 609.24 114.91 617.735 114.91C626.087 114.91 633.732 116.68 640.669 120.219C647.748 123.617 653.34 128.43 657.445 134.659C661.551 140.747 663.604 147.755 663.604 155.683V167.575C663.604 170.689 662.4 173.308 659.994 175.432C657.729 177.555 654.826 178.617 651.287 178.617H595.649V183.289C595.649 189.377 597.49 194.332 601.171 198.154C604.852 201.977 610.373 203.888 617.735 203.888C624.813 203.888 630.051 202.331 633.449 199.216C636.988 196.101 638.758 192.067 638.758 187.112C641.306 186.828 643.076 186.687 644.067 186.687C649.305 186.687 653.411 187.89 656.384 190.297C659.357 192.562 660.843 195.818 660.843 200.065C660.843 204.171 658.932 208.135 655.109 211.957C651.287 215.78 646.049 218.894 639.395 221.301C632.741 223.708 625.45 224.911 617.522 224.911ZM639.607 159.717V155.683C639.607 149.737 637.555 144.923 633.449 141.242C629.343 137.561 624.034 135.721 617.522 135.721C611.01 135.721 605.701 137.561 601.595 141.242C597.631 144.782 595.649 149.595 595.649 155.683V159.717H639.607Z" fill="white"/>
<defs>
<clipPath id="clip0_756_172179">
<rect width="689" height="410.765" fill="white" transform="translate(0 289.861)"/>
</clipPath>
</defs>
</svg>
