<svg width="373" height="307" viewBox="0 0 373 307" fill="none" xmlns="http://www.w3.org/2000/svg">
<g clip-path="url(#clip0_15_13317)">
<path d="M85.7736 45.6371C98.3523 45.6371 108.549 35.4209 108.549 22.8186C108.549 10.2162 98.3523 0 85.7736 0C73.195 0 62.998 10.2162 62.998 22.8186C62.998 35.4209 73.195 45.6371 85.7736 45.6371Z" fill="#FF6584"/>
<path d="M311.632 212.762H282.952V189.186L293.173 189.129C294.759 189.12 296.303 188.614 297.587 187.681C298.871 186.748 299.831 185.436 300.333 183.928L307.513 162.347C307.893 161.203 307.997 159.986 307.816 158.794C307.634 157.603 307.173 156.472 306.47 155.494C305.766 154.516 304.841 153.72 303.77 153.171C302.699 152.621 301.514 152.335 300.311 152.335H282.952V142.193H304.744C306.462 142.193 308.129 141.61 309.473 140.538C310.817 139.466 311.758 137.969 312.143 136.291L317.088 114.741C317.344 113.626 317.345 112.468 317.092 111.353C316.84 110.237 316.339 109.193 315.628 108.299C314.917 107.404 314.014 106.681 312.986 106.185C311.957 105.688 310.831 105.43 309.689 105.43H282.952V102.895C282.952 101.55 282.419 100.26 281.469 99.3093C280.52 98.3583 279.233 97.8241 277.891 97.8241C276.548 97.8241 275.261 98.3583 274.312 99.3093C273.363 100.26 272.829 101.55 272.829 102.895V105.43H93.5764V102.895C93.5764 101.55 93.0432 100.26 92.094 99.3093C91.1449 98.3583 89.8575 97.8241 88.5152 97.8241C87.1729 97.8241 85.8855 98.3583 84.9363 99.3093C83.9872 100.26 83.4539 101.55 83.4539 102.895V105.43H62.1998C61.0582 105.43 59.9314 105.688 58.9031 106.185C57.8748 106.681 56.9716 107.404 56.2605 108.299C55.5495 109.193 55.049 110.237 54.7963 111.353C54.5436 112.468 54.5451 113.626 54.8009 114.741L59.7458 136.291C60.1307 137.969 61.0719 139.466 62.4159 140.538C63.7598 141.61 65.4268 142.194 67.1447 142.194H83.4539V152.335H71.5778C70.3812 152.335 69.2017 152.618 68.1353 153.162C67.0688 153.706 66.1457 154.494 65.4413 155.463C64.7368 156.432 64.2709 157.554 64.0815 158.738C63.8922 159.921 63.9848 161.133 64.3518 162.274L71.6805 185.061C72.1755 186.6 73.1469 187.941 74.4539 188.889C75.7609 189.837 77.3355 190.344 78.9492 190.335L83.4539 190.309V212.762H60.2565C59.2595 212.762 58.2723 212.959 57.3512 213.341C56.4301 213.723 55.5932 214.284 54.8882 214.99C54.1833 215.696 53.624 216.535 53.2425 217.457C52.861 218.38 52.6646 219.369 52.6646 220.368C52.6646 222.385 53.4645 224.32 54.8882 225.747C56.312 227.173 58.243 227.974 60.2565 227.974H83.4539V283.753C83.4539 285.098 83.9872 286.388 84.9363 287.339C85.8855 288.29 87.1729 288.824 88.5152 288.824C89.8575 288.824 91.1449 288.29 92.094 287.339C93.0432 286.388 93.5764 285.098 93.5764 283.753V227.974H272.829V283.753C272.829 285.098 273.363 286.388 274.312 287.339C275.261 288.29 276.548 288.824 277.891 288.824C279.233 288.824 280.52 288.29 281.469 287.339C282.419 286.388 282.952 285.098 282.952 283.753V227.974H311.632C313.646 227.974 315.577 227.173 317.001 225.747C318.424 224.32 319.224 222.385 319.224 220.368C319.224 219.369 319.028 218.38 318.646 217.457C318.265 216.535 317.706 215.696 317.001 214.99C316.296 214.284 315.459 213.723 314.538 213.341C313.616 212.959 312.629 212.762 311.632 212.762ZM93.5764 142.193H272.829V152.335H93.5764V142.193ZM93.5764 212.762V190.252L272.829 189.243V212.762H93.5764Z" fill="#E6E6E6"/>
<path d="M290.677 235.281C292.893 217.43 303.935 199.842 320.928 194.032C314.226 212.406 314.228 232.562 320.932 250.935C323.543 258.011 327.182 265.609 324.726 272.74C323.198 277.178 319.46 280.573 315.281 282.696C311.102 284.819 306.464 285.831 301.885 286.822L300.983 287.569C293.713 271.121 288.462 253.132 290.677 235.281Z" fill="#E6E6E6"/>
<path d="M321.096 194.37C311.201 205.478 305.05 219.428 303.519 234.238C303.21 237.413 303.172 240.661 303.865 243.79C304.564 246.835 306.063 249.637 308.208 251.905C310.166 254.06 312.418 256.037 313.818 258.632C315.295 261.366 315.352 264.473 314.341 267.377C313.104 270.931 310.667 273.828 308.185 276.577C305.429 279.63 302.518 282.758 301.347 286.805C301.205 287.296 300.454 287.046 300.596 286.557C302.634 279.515 309.457 275.515 312.71 269.172C314.229 266.213 314.866 262.777 313.443 259.653C312.198 256.921 309.878 254.88 307.877 252.716C305.776 250.442 304.165 247.949 303.335 244.939C302.486 241.861 302.397 238.605 302.623 235.436C303.19 228.254 304.881 221.206 307.633 214.55C310.732 206.937 315.108 199.91 320.572 193.775C320.911 193.396 321.432 193.993 321.096 194.37Z" fill="white"/>
<path d="M303.732 229.441C301.286 228.846 299.132 227.4 297.653 225.36C296.174 223.321 295.466 220.821 295.657 218.307C295.697 217.799 296.488 217.838 296.447 218.347C296.265 220.687 296.925 223.016 298.306 224.912C299.687 226.808 301.7 228.147 303.98 228.688C304.475 228.806 304.224 229.558 303.732 229.441Z" fill="white"/>
<path d="M307.072 250.944C311.489 248.302 314.749 244.089 316.203 239.146C316.346 238.656 317.098 238.905 316.954 239.394C315.432 244.536 312.03 248.913 307.428 251.652C306.989 251.913 306.636 251.203 307.072 250.944Z" fill="white"/>
<path d="M311.466 207.688C312.365 208.115 313.355 208.313 314.348 208.262C315.341 208.212 316.306 207.915 317.157 207.398C317.592 207.132 317.945 207.842 317.513 208.107C316.571 208.673 315.504 208.999 314.407 209.058C313.31 209.116 312.215 208.904 311.218 208.441C311.121 208.405 311.04 208.333 310.994 208.24C310.947 208.147 310.937 208.04 310.967 207.94C311 207.84 311.071 207.758 311.165 207.711C311.258 207.664 311.367 207.655 311.466 207.688Z" fill="white"/>
<path d="M372.722 225.916C372.455 226.09 372.188 226.264 371.921 226.445C368.342 228.802 364.961 231.448 361.81 234.354C361.563 234.575 361.315 234.802 361.075 235.03C353.558 242.113 347.419 250.532 342.969 259.861C341.202 263.574 339.72 267.417 338.535 271.356C336.898 276.796 335.556 282.825 332.317 287.274C331.984 287.742 331.623 288.189 331.235 288.613H301.962C301.896 288.579 301.829 288.552 301.762 288.519L300.594 288.573C300.64 288.365 300.694 288.151 300.741 287.944C300.767 287.823 300.801 287.703 300.827 287.582C300.847 287.502 300.867 287.422 300.881 287.348C300.887 287.321 300.894 287.295 300.901 287.274C300.914 287.201 300.934 287.134 300.948 287.067C301.241 285.869 301.544 284.672 301.856 283.474C301.856 283.467 301.856 283.467 301.862 283.46C304.26 274.34 307.439 265.341 311.88 257.111C312.014 256.863 312.147 256.609 312.294 256.361C314.317 252.663 316.638 249.136 319.234 245.816C320.661 244.003 322.179 242.263 323.782 240.603C327.932 236.324 332.728 232.724 337.994 229.938C348.493 224.384 360.647 222.256 371.868 225.649C372.155 225.736 372.435 225.823 372.722 225.916Z" fill="#E6E6E6"/>
<path d="M372.657 226.288C358.08 229.189 344.786 236.617 334.664 247.518C332.509 249.867 330.528 252.437 329.2 255.354C327.928 258.207 327.442 261.349 327.791 264.453C328.059 267.355 328.669 270.292 328.229 273.208C327.764 276.282 325.942 278.797 323.39 280.506C320.267 282.598 316.58 283.44 312.946 284.138C308.911 284.914 304.708 285.655 301.34 288.18C300.932 288.486 300.482 287.834 300.89 287.528C306.749 283.135 314.6 284.057 321.01 280.956C324 279.509 326.574 277.15 327.315 273.797C327.963 270.865 327.337 267.836 327.04 264.9C326.728 261.818 326.94 258.855 328.086 255.951C329.258 252.981 331.144 250.328 333.229 247.934C337.998 242.542 343.583 237.935 349.78 234.28C356.83 230.071 364.546 227.1 372.596 225.498C373.094 225.399 373.152 226.19 372.657 226.288Z" fill="white"/>
<path d="M337.717 243.816C336.122 241.866 335.271 239.412 335.315 236.891C335.36 234.371 336.297 231.948 337.96 230.056C338.298 229.674 338.906 230.182 338.567 230.564C337.016 232.323 336.143 234.58 336.106 236.927C336.069 239.275 336.871 241.558 338.367 243.365C338.692 243.758 338.04 244.207 337.717 243.816Z" fill="white"/>
<path d="M327.462 263C332.576 263.555 337.71 262.158 341.842 259.088C342.251 258.783 342.701 259.435 342.293 259.74C337.987 262.926 332.641 264.369 327.321 263.78C326.814 263.724 326.958 262.944 327.462 263Z" fill="white"/>
<path d="M356.965 231.113C357.425 231.997 358.097 232.752 358.92 233.31C359.744 233.869 360.693 234.214 361.682 234.315C362.19 234.365 362.045 235.145 361.541 235.095C360.448 234.979 359.4 234.596 358.489 233.981C357.578 233.366 356.831 232.536 356.314 231.565C356.258 231.477 356.237 231.372 356.255 231.269C356.274 231.167 356.331 231.075 356.414 231.013C356.5 230.954 356.607 230.931 356.71 230.95C356.813 230.969 356.905 231.027 356.965 231.113Z" fill="white"/>
<path d="M9.7775 235.281C11.9933 217.43 23.0354 199.842 40.0277 194.032C33.3264 212.406 33.3279 232.562 40.0318 250.935C42.6429 258.011 46.2824 265.609 43.8264 272.74C42.2982 277.178 38.5599 280.573 34.3812 282.696C30.2022 284.819 25.5644 285.831 20.9847 286.822L20.0833 287.569C12.8131 271.121 7.56173 253.132 9.7775 235.281Z" fill="#E6E6E6"/>
<path d="M40.1963 194.37C30.3008 205.478 24.1505 219.428 22.6189 234.238C22.31 237.413 22.2725 240.661 22.9652 243.79C23.6638 246.835 25.1635 249.637 27.3086 251.905C29.2663 254.06 31.5179 256.037 32.9186 258.632C34.395 261.366 34.4518 264.473 33.441 267.377C32.2043 270.931 29.7668 273.828 27.2849 276.577C24.5293 279.63 21.6187 282.758 20.4474 286.805C20.3054 287.296 19.5542 287.046 19.6959 286.557C21.7339 279.515 28.5568 275.515 31.8106 269.172C33.3289 266.213 33.9662 262.777 32.5428 259.653C31.2981 256.921 28.978 254.88 26.977 252.716C24.876 250.442 23.2649 247.949 22.435 244.939C21.5861 241.861 21.4969 238.605 21.7234 235.436C22.2905 228.254 23.9811 221.206 26.7334 214.55C29.8325 206.937 34.2087 199.91 39.6727 193.775C40.011 193.396 40.5324 193.993 40.1963 194.37Z" fill="white"/>
<path d="M22.8319 229.441C20.3867 228.846 18.2321 227.4 16.753 225.36C15.2738 223.321 14.5664 220.821 14.757 218.307C14.7973 217.799 15.5879 217.838 15.5475 218.347C15.3657 220.687 16.0249 223.016 17.4062 224.912C18.7875 226.808 20.7998 228.147 23.0801 228.688C23.5754 228.806 23.3245 229.558 22.8319 229.441Z" fill="white"/>
<path d="M26.1724 250.944C30.5888 248.302 33.849 244.089 35.303 239.146C35.4466 238.656 36.1979 238.905 36.0544 239.394C34.5318 244.536 31.1301 248.913 26.5283 251.652C26.0895 251.913 25.736 251.203 26.1724 250.944Z" fill="white"/>
<path d="M30.5667 207.688C31.4649 208.115 32.4551 208.313 33.4483 208.262C34.4416 208.212 35.4067 207.915 36.2571 207.398C36.6924 207.132 37.0455 207.842 36.613 208.107C35.6708 208.673 34.6045 208.999 33.5073 209.058C32.41 209.116 31.3152 208.904 30.3185 208.441C30.2209 208.405 30.1406 208.333 30.0939 208.24C30.0471 208.147 30.0375 208.04 30.0669 207.94C30.1002 207.84 30.1714 207.758 30.265 207.711C30.3586 207.664 30.467 207.655 30.5667 207.688Z" fill="white"/>
<path d="M91.8227 225.916C91.5556 226.09 91.2885 226.264 91.0211 226.445C87.4425 228.802 84.061 231.448 80.9099 234.354C80.6627 234.575 80.4156 234.802 80.1752 235.03C72.6581 242.113 66.5189 250.532 62.0696 259.861C60.3025 263.574 58.82 267.417 57.6349 271.356C55.9985 276.796 54.6563 282.825 51.4171 287.274C51.0843 287.742 50.723 288.189 50.3351 288.613H21.0627C20.9962 288.579 20.9293 288.552 20.8625 288.519L19.6937 288.573C19.7407 288.365 19.7938 288.151 19.8408 287.944C19.8675 287.823 19.9008 287.703 19.9275 287.582C19.9474 287.502 19.9677 287.422 19.981 287.348C19.9875 287.321 19.9944 287.295 20.0009 287.274C20.0143 287.201 20.0345 287.134 20.0479 287.067C20.3417 285.869 20.6444 284.672 20.9561 283.474C20.9561 283.467 20.9561 283.467 20.9626 283.46C23.3604 274.34 26.5393 265.341 30.9805 257.111C31.1142 256.863 31.2476 256.609 31.3947 256.361C33.4171 252.663 35.7379 249.136 38.3338 245.816C39.7611 244.003 41.2791 242.263 42.882 240.603C47.0318 236.324 51.8277 232.724 57.0939 229.938C67.5928 224.384 79.7477 222.256 90.968 225.649C91.2549 225.736 91.5357 225.823 91.8227 225.916Z" fill="#E6E6E6"/>
<path d="M91.7568 226.288C77.1803 229.189 63.8866 236.617 53.7638 247.518C51.6093 249.867 49.6278 252.437 48.3003 255.354C47.0282 258.207 46.5418 261.349 46.8916 264.453C47.1597 267.355 47.7693 270.292 47.3287 273.208C46.8644 276.282 45.0426 278.797 42.4902 280.506C39.3672 282.598 35.6803 283.44 32.0463 284.138C28.0114 284.914 23.8081 285.655 20.4406 288.18C20.0326 288.486 19.5826 287.834 19.99 287.528C25.8489 283.135 33.7003 284.057 40.1097 280.956C43.1005 279.509 45.6741 277.15 46.4149 273.797C47.0628 270.865 46.4368 267.836 46.1399 264.9C45.8283 261.818 46.0407 258.855 47.1865 255.951C48.3587 252.981 50.2441 250.328 52.3292 247.934C57.0978 242.542 62.683 237.935 68.8802 234.28C75.93 230.071 83.6465 227.1 91.6961 225.498C92.1943 225.399 92.2518 226.19 91.7568 226.288Z" fill="white"/>
<path d="M56.8171 243.816C55.2221 241.866 54.3709 239.412 54.4154 236.891C54.46 234.371 55.3973 231.948 57.0602 230.056C57.3979 229.674 58.0058 230.182 57.6676 230.564C56.1159 232.323 55.243 234.58 55.2063 236.927C55.1696 239.275 55.9716 241.558 57.4676 243.365C57.7922 243.758 57.1398 244.207 56.8171 243.816Z" fill="white"/>
<path d="M46.5622 263C51.6761 263.555 56.8107 262.158 60.9422 259.088C61.3513 258.783 61.8014 259.435 61.3928 259.74C57.0875 262.926 51.7412 264.369 46.4208 263.78C45.9138 263.724 46.0579 262.944 46.5622 263Z" fill="white"/>
<path d="M76.0649 231.113C76.5251 231.997 77.1971 232.752 78.0205 233.31C78.8439 233.869 79.7929 234.214 80.7823 234.315C81.2899 234.365 81.1452 235.145 80.641 235.095C79.5483 234.979 78.5007 234.596 77.5896 233.981C76.6785 233.366 75.9317 232.536 75.4144 231.565C75.358 231.477 75.3369 231.372 75.3555 231.269C75.374 231.167 75.4308 231.075 75.5143 231.013C75.6008 230.954 75.7071 230.931 75.8102 230.95C75.9133 230.969 76.0048 231.027 76.0649 231.113Z" fill="white"/>
<path d="M126.878 32.9909C125.03 31.6838 123.008 30.3207 120.746 30.3752C115.272 30.5071 112.321 38.547 106.852 38.2642C103.365 38.0839 101.05 34.5346 97.8026 33.2476C93.5752 31.5721 88.1954 34.8489 87.7343 39.3801L88.2772 38.8823C104.71 42.8959 121.763 43.6852 138.495 41.2066C134.623 38.468 130.751 35.7295 126.878 32.9909Z" fill="#E6E6E6"/>
<path d="M205.657 53.8418C204.331 52.904 202.88 51.926 201.257 51.9651C197.33 52.0597 195.212 57.8283 191.289 57.6254C188.786 57.496 187.125 54.9494 184.796 54.026C181.762 52.8239 177.902 55.1749 177.572 58.426L177.961 58.0688C189.752 60.9486 201.987 61.5149 213.992 59.7365C211.214 57.7716 208.435 55.8067 205.657 53.8418Z" fill="#E6E6E6"/>
<path d="M265.401 24.93C264.52 24.3069 263.556 23.6572 262.478 23.6832C259.869 23.746 258.462 27.5785 255.855 27.4437C254.193 27.3578 253.089 25.6659 251.542 25.0524C249.526 24.2537 246.962 25.8157 246.742 27.9757L247.001 27.7383C254.834 29.6516 262.963 30.0278 270.939 28.8463C269.093 27.5409 267.247 26.2355 265.401 24.93Z" fill="#E6E6E6"/>
<path d="M206.604 185.404C208.012 185.131 209.257 184.314 210.069 183.129C210.881 181.944 211.196 180.487 210.945 179.072C210.894 178.777 210.821 178.487 210.724 178.204L241.955 148.303L232.691 145.185L203.619 174.955C202.513 175.463 201.606 176.322 201.038 177.4C200.471 178.478 200.275 179.714 200.481 180.914C200.584 181.614 200.825 182.286 201.19 182.892C201.554 183.498 202.035 184.025 202.605 184.443C203.175 184.86 203.822 185.16 204.508 185.325C205.195 185.49 205.907 185.517 206.604 185.404Z" fill="#9E616A"/>
<path d="M262.635 116.453C262.635 116.453 269.23 117.919 268.368 125.857C267.505 133.794 249.462 150.27 246.631 153.016C243.8 155.761 224.761 164.755 224.761 164.755L217.484 156.728L262.635 116.453Z" fill="#6750A4"/>
<path d="M196.048 265.58L189.333 263.832L192.08 233.608L201.991 236.189L196.048 265.58Z" fill="#9E616A"/>
<path d="M190.819 250.893C190.794 250.834 188.305 244.901 189.939 239.359C190.077 238.824 190.17 238.277 190.216 237.726C190.272 237.075 190.385 236.431 190.554 235.801C190.742 235.233 190.978 234.683 191.258 234.156C191.549 233.611 191.792 233.041 191.986 232.455C195.917 219.284 201.402 201.384 205.208 190.907C209.482 179.142 255.746 182.365 258.447 182.564L266.643 176.714L269.703 197.408L240.566 206.683L240.542 206.691L216.815 206.641L215.974 209.165C216.58 210.251 216.755 211.526 216.464 212.735C216.334 213.33 216.08 213.892 215.719 214.382C215.358 214.873 214.898 215.282 214.369 215.582L213.719 215.933L205.776 239.775C205.763 242.167 205.018 244.497 203.641 246.451L203.468 246.691L200.413 253.467L190.856 250.98L190.819 250.893Z" fill="#2F2E41"/>
<path d="M196.01 274.459L171 267.947L171.072 267.588C171.596 264.753 173.181 262.224 175.503 260.52C176.574 259.734 177.806 259.197 179.109 258.948C180.413 258.698 181.756 258.742 183.04 259.076L183.041 259.076L188.405 256.332L196.133 262.485L198.317 263.053L196.01 274.459Z" fill="#2F2E41"/>
<path d="M214.419 280.16L207.529 280.16L204.252 250.004L214.42 250.005L214.419 280.16Z" fill="#9E616A"/>
<path d="M253.47 106.552C261.065 106.552 267.221 99.5662 267.221 90.9485C267.221 82.3308 261.065 75.3448 253.47 75.3448C245.876 75.3448 239.719 82.3308 239.719 90.9485C239.719 99.5662 245.876 106.552 253.47 106.552Z" fill="#9E616A"/>
<path d="M205.228 270.794C205.193 270.745 201.764 265.741 201.996 259.788C202.02 259.174 202.396 258.587 202.794 257.966C203.176 257.372 203.57 256.757 203.595 256.163C203.751 252.435 203.921 248.776 204.101 245.288C204.217 243.027 203.628 240.636 203.059 238.324C202.45 235.852 201.821 233.296 201.996 230.787C202.972 216.779 207.332 203.603 209.287 201.385C213.615 196.474 240.099 182.206 241.224 181.602L241.27 181.577L275.18 185.896L275.31 185.913L275.334 186.059C275.356 186.19 277.467 199.294 272.539 207.392C271.623 208.968 270.378 210.328 268.891 211.379C267.403 212.43 265.707 213.148 263.917 213.483C249.4 216.399 228.515 218.518 226.663 218.703L219.592 256.138C220.149 257.214 220.369 258.434 220.224 259.638C220.078 260.842 219.574 261.974 218.777 262.887L218.197 263.523L217.524 267.088L215.037 270.871H205.281L205.228 270.794Z" fill="#2F2E41"/>
<path d="M237.909 183.688L244.297 172.815L241.028 153.555L241.618 126.204L242.795 122.13C243.914 118.287 246.415 115.117 249.658 113.433L257.586 109.314C258.067 109.061 258.601 108.926 259.144 108.918C259.688 108.911 260.225 109.032 260.713 109.272C261.208 109.526 261.648 109.877 262.007 110.303C262.366 110.729 262.636 111.223 262.802 111.755C264.549 112.024 275.707 114.201 278.122 126.132C279.02 130.569 279.534 139.353 279.648 152.239C279.728 161.546 279.215 170.849 278.112 180.091C278.031 180.767 277.46 181.41 276.906 182.031C276.402 182.599 275.88 183.185 275.807 183.719C275.736 184.241 276.076 184.793 276.436 185.377C276.824 186.007 277.226 186.659 277.12 187.347C276.881 188.896 276.741 190.47 276.605 191.993C276.458 194.086 276.191 196.169 275.805 198.231C275.317 200.375 274.712 202.49 273.993 204.568C273.506 206.061 273.003 207.606 272.608 209.115L272.577 209.235L272.468 209.256C272.465 209.257 272.463 209.257 272.46 209.257C272.35 209.257 271.954 204.898 237.909 183.688Z" fill="#6750A4"/>
<path d="M218.126 288.824L192.465 288.823V288.455C192.433 285.515 193.473 282.665 195.391 280.44C196.261 279.412 197.342 278.582 198.561 278.01C199.779 277.437 201.107 277.134 202.453 277.121H202.453L207.141 273.086L215.886 277.122L218.126 277.122L218.126 288.824Z" fill="#2F2E41"/>
<path d="M123.161 162.004L123.907 170.364C123.907 170.364 124.23 177.305 125.254 178.84C126.27 180.367 153.998 180.56 153.998 180.56C153.998 180.56 155.83 170.665 157.408 162.004H123.161Z" fill="#FFB6B6"/>
<path d="M204.774 268.322L210.571 267.149L208.912 243.69L200.357 245.422L204.774 268.322Z" fill="#FFB6B6"/>
<path d="M184.452 271.759H190.36L193.171 248.416L184.451 248.416L184.452 271.759Z" fill="#FFB6B6"/>
<path d="M193.91 262.153L182.299 263.234L175.966 216.208C155.09 219.805 135.396 220.957 118.361 216.606C112.593 215.153 109.068 209.186 110.486 203.279C110.553 203.003 110.629 202.73 110.716 202.459C112.755 196.227 121.025 190.243 125.229 183.388L148.523 192.965L149.578 197.289L179.413 193.421C185.413 192.643 190.892 196.994 191.652 203.139C191.692 203.464 191.718 203.79 191.73 204.117L193.91 262.153Z" fill="#2F2E41"/>
<path d="M211.561 252.25L199.951 253.331L178.899 210.195C158.023 213.792 138.329 214.944 121.294 210.593C115.526 209.14 112.001 203.173 113.419 197.266C113.486 196.99 113.562 196.717 113.649 196.447C115.688 190.215 121.025 185.805 125.229 178.951L155.941 179.418L152.511 191.276L182.346 187.408C188.346 186.63 193.825 190.981 194.585 197.127C194.625 197.451 194.651 197.777 194.663 198.104L211.561 252.25Z" fill="#2F2E41"/>
<path d="M137.046 109.913C144.914 109.913 151.293 103.523 151.293 95.6396C151.293 87.7563 144.914 81.3657 137.046 81.3657C129.177 81.3657 122.798 87.7563 122.798 95.6396C122.798 103.523 129.177 109.913 137.046 109.913Z" fill="#FFB6B6"/>
<path d="M129.735 112.644L141.169 113.992C141.651 114.049 142.104 114.255 142.464 114.582C142.823 114.909 143.072 115.34 143.176 115.815L144.994 124.152L156.33 137.526C156.33 137.526 160.401 145.173 158.874 153.839C157.348 162.505 156.677 168.945 156.677 168.945C156.677 168.945 126.269 180.368 125.251 178.838C124.234 177.309 123.904 170.362 123.904 170.362L119.833 124.992C119.833 124.992 124.412 117.345 126.956 117.345C128.598 117.289 128.388 113.587 129.735 112.644Z" fill="#6750A4"/>
<path opacity="0.2" d="M128.998 142.366L154.563 170.527L159.115 167.72L128.998 142.366Z" fill="black"/>
<path d="M156.986 171.734C158.59 171.734 159.89 170.172 159.89 168.244C159.89 166.316 158.59 164.753 156.986 164.753C155.383 164.753 154.083 166.316 154.083 168.244C154.083 170.172 155.383 171.734 156.986 171.734Z" fill="#6750A4"/>
<path d="M198.178 195.701C197.331 195.595 196.517 195.305 195.794 194.85C195.071 194.395 194.457 193.787 193.994 193.068C193.531 192.35 193.231 191.538 193.115 190.691C192.999 189.843 193.07 188.981 193.322 188.164L157.543 157.469L167.66 153.731L201.046 184.378C202.388 184.894 203.494 185.886 204.155 187.164C204.816 188.443 204.986 189.92 204.632 191.316C204.278 192.712 203.426 193.929 202.237 194.737C201.047 195.545 199.603 195.888 198.178 195.701Z" fill="#FFB6B6"/>
<path d="M133.352 124.233C133.352 124.233 126.118 126.087 127.4 134.554C128.683 143.022 149.322 159.899 152.567 162.719C155.812 165.539 177.241 174.357 177.241 174.357L184.957 165.445L133.352 124.233Z" fill="#6750A4"/>
<path d="M204.744 184.339C203.89 184.356 203.044 184.186 202.263 183.839C201.482 183.493 200.787 182.979 200.226 182.335C199.665 181.69 199.252 180.93 199.016 180.108C198.78 179.286 198.726 178.423 198.859 177.578L159.055 152.342L168.533 147.189L205.961 172.721C207.363 173.039 208.6 173.861 209.437 175.032C210.274 176.202 210.653 177.64 210.503 179.072C210.353 180.504 209.684 181.831 208.622 182.802C207.561 183.773 206.181 184.32 204.744 184.339Z" fill="#FFB6B6"/>
<path d="M130.356 122.926C130.356 122.926 123.462 125.8 125.944 133.995C128.426 142.191 151.267 155.928 154.882 158.253C158.498 160.577 180.968 166.225 180.968 166.225L187.328 156.296L130.356 122.926Z" fill="#6750A4"/>
<path d="M143.526 81.9945C138.586 78.5906 134.235 78.0721 130.662 79.0375C130.199 78.3196 129.549 77.7417 128.783 77.3657C125.996 70.3298 117.514 66.1044 110.235 68.1585C102.909 70.2258 97.8543 78.3561 99.2328 85.8554C100.087 90.5038 103.007 94.529 104.181 99.1067C106.455 107.968 100.909 118.12 92.2328 120.976C100.448 122.629 109.49 117.601 112.437 109.743C113.868 105.927 113.955 101.759 114.137 97.686C114.318 93.6128 114.646 89.4171 116.489 85.7815C117.724 83.288 119.775 81.2942 122.3 80.1328C122.074 80.8335 122.017 81.578 122.135 82.3049C122.253 83.0318 122.541 83.7202 122.977 84.3133C121.05 86.7312 120.002 89.346 120.002 90.9119C116 98.2401 121.722 104.535 129.037 108.544C131.954 110.152 135.323 110.74 138.611 110.216L138.917 108.908L139.332 110.087C139.332 110.087 144.094 125.845 145.665 126.77C145.069 123.965 144.386 110.98 144.054 108.243C143.595 104.518 145.197 98.9717 146.352 95.5991C147.068 93.5205 147.436 91.3373 147.44 89.1383V89.0422L148.565 92.6621L152.66 90.9119C151.898 86.5337 152.66 81.5634 143.526 81.9945Z" fill="#2F2E41"/>
<path d="M203.483 194.538C204.326 194.402 205.128 194.083 205.835 193.602C206.541 193.122 207.134 192.492 207.571 191.758C208.008 191.023 208.279 190.202 208.365 189.351C208.451 188.5 208.35 187.64 208.068 186.833L242.737 154.884L232.494 151.508L200.215 183.324C198.892 183.888 197.822 184.918 197.207 186.219C196.592 187.521 196.475 189.003 196.877 190.385C197.28 191.767 198.175 192.953 199.393 193.719C200.61 194.484 202.065 194.776 203.483 194.538Z" fill="#9E616A"/>
<path d="M265.735 120.809C265.735 120.809 273.03 122.404 272.048 130.912C271.066 139.419 251.04 157.02 247.896 159.954C244.753 162.888 223.65 172.463 223.65 172.463L215.623 163.831L265.735 120.809Z" fill="#6750A4"/>
<path d="M201.898 262.282L210.735 257.844L212.401 261.738L223.576 264.001C224.128 264.113 224.63 264.398 225.009 264.816C225.387 265.234 225.623 265.762 225.68 266.323C225.738 266.884 225.615 267.449 225.33 267.935C225.045 268.422 224.611 268.804 224.094 269.026L213.296 273.663L209.787 270.612L210.708 274.775L206.637 276.523L201.898 262.282Z" fill="#2F2E41"/>
<path d="M182.909 269.016L192.777 268.426V272.662L202.159 279.154C202.622 279.474 202.971 279.935 203.155 280.468C203.338 281.001 203.347 281.58 203.179 282.118C203.012 282.657 202.677 283.128 202.223 283.462C201.77 283.796 201.221 283.977 200.658 283.977H188.91L186.885 279.787L186.095 283.977H181.665L182.909 269.016Z" fill="#2F2E41"/>
<path d="M272.318 82.5032C270.52 80.173 266.862 79.178 264.523 80.963C266.341 79.7853 266.917 77.2012 266.152 75.1729C265.387 73.1445 263.529 71.6747 261.498 70.9261C259.467 70.1775 257.262 70.0629 255.098 70.071C252.273 70.0816 249.378 70.3055 246.808 71.4779C244.237 72.6504 242.025 74.9338 241.604 77.7318C240.798 77.4303 239.933 77.321 239.077 77.4127C238.221 77.5044 237.398 77.7945 236.673 78.2601C235.949 78.7257 235.343 79.3539 234.902 80.095C234.462 80.8361 234.2 81.6697 234.138 82.5298C234.075 83.3899 234.213 84.2528 234.541 85.0502C234.868 85.8475 235.377 86.5575 236.026 87.1237C236.675 87.69 237.447 88.097 238.281 88.3125C239.114 88.528 239.986 88.5461 240.828 88.3654C242.264 88.057 243.513 87.1962 244.883 86.6649C246.252 86.1335 247.966 85.9992 249.046 86.9963C250.514 88.3528 250.265 91.2676 252.148 91.936C253.188 92.3053 254.342 91.7146 255.431 91.8904C256.725 92.0991 257.634 93.3755 257.847 94.6708C258.061 95.966 257.732 97.2824 257.405 98.5538C256.678 101.382 255.951 104.21 255.224 107.038L256.077 106.823C260.398 106.583 264.51 104.882 267.741 101.997C270.972 99.1132 273.131 95.2164 273.866 90.9437C274.365 88.0413 274.116 84.8334 272.318 82.5032Z" fill="#2F2E41"/>
<path d="M362.928 289.252H0.502188C0.436116 289.252 0.370658 289.24 0.309561 289.214C0.248463 289.189 0.192926 289.152 0.146138 289.105C0.0993507 289.059 0.0622274 289.003 0.0368985 288.942C0.0115695 288.881 -0.00146484 288.815 -0.00146484 288.749C-0.00146484 288.683 0.0115695 288.617 0.0368985 288.556C0.0622274 288.495 0.0993507 288.44 0.146138 288.393C0.192926 288.346 0.248463 288.309 0.309561 288.284C0.370658 288.259 0.436116 288.246 0.502188 288.246H362.928C362.994 288.246 363.059 288.259 363.12 288.284C363.182 288.309 363.237 288.346 363.284 288.393C363.331 288.44 363.368 288.495 363.393 288.556C363.418 288.617 363.432 288.683 363.432 288.749C363.432 288.815 363.418 288.881 363.393 288.942C363.368 289.003 363.331 289.059 363.284 289.105C363.237 289.152 363.182 289.189 363.12 289.214C363.059 289.24 362.994 289.252 362.928 289.252Z" fill="#CCCCCC"/>
<path d="M105.657 275.204C106.952 264.776 113.402 254.501 123.329 251.107C119.414 261.841 119.415 273.616 123.332 284.349C124.857 288.483 126.983 292.922 125.548 297.088C124.656 299.68 122.472 301.664 120.031 302.904C117.589 304.144 114.88 304.735 112.204 305.314L111.678 305.751C107.431 296.142 104.363 285.632 105.657 275.204Z" fill="#E6E6E6"/>
<path d="M123.428 251.304C117.647 257.794 114.054 265.943 113.159 274.595C112.933 276.454 113.002 278.337 113.361 280.175C113.77 281.954 114.646 283.591 115.899 284.916C117.042 286.175 118.358 287.33 119.176 288.846C119.584 289.628 119.821 290.487 119.874 291.368C119.927 292.248 119.793 293.13 119.481 293.955C118.759 296.031 117.335 297.723 115.885 299.329C114.275 301.113 112.575 302.94 111.89 305.305C111.808 305.591 111.369 305.445 111.452 305.159C112.642 301.045 116.628 298.709 118.529 295.003C119.416 293.275 119.788 291.267 118.957 289.442C118.229 287.846 116.874 286.654 115.705 285.389C114.464 284.115 113.553 282.555 113.052 280.846C112.6 279.033 112.459 277.155 112.636 275.295C112.967 271.099 113.955 266.982 115.563 263.093C117.373 258.646 119.93 254.541 123.122 250.957C123.32 250.735 123.624 251.084 123.428 251.304Z" fill="white"/>
<path d="M113.284 271.792C111.855 271.445 110.596 270.6 109.732 269.408C108.868 268.217 108.455 266.757 108.566 265.288C108.59 264.991 109.052 265.014 109.028 265.311C108.922 266.679 109.307 268.039 110.114 269.147C110.921 270.254 112.096 271.037 113.428 271.352C113.718 271.421 113.571 271.861 113.284 271.792Z" fill="white"/>
<path d="M115.235 284.354C117.815 282.811 119.72 280.35 120.569 277.462C120.653 277.176 121.092 277.321 121.008 277.607C120.119 280.611 118.131 283.168 115.443 284.768C115.187 284.92 114.98 284.506 115.235 284.354Z" fill="white"/>
<path d="M117.802 259.084C118.327 259.334 118.905 259.45 119.486 259.42C120.066 259.39 120.63 259.217 121.127 258.915C121.381 258.76 121.587 259.174 121.334 259.329C120.784 259.66 120.161 259.851 119.52 259.885C118.879 259.919 118.24 259.795 117.657 259.524C117.6 259.503 117.553 259.461 117.526 259.407C117.499 259.353 117.493 259.29 117.51 259.232C117.53 259.174 117.571 259.125 117.626 259.098C117.681 259.07 117.744 259.065 117.802 259.084Z" fill="white"/>
<path d="M153.588 269.733C153.432 269.835 153.276 269.937 153.119 270.042C151.029 271.419 149.053 272.965 147.213 274.663C147.068 274.792 146.924 274.924 146.783 275.057C142.392 279.195 138.805 284.114 136.206 289.564C135.174 291.733 134.308 293.978 133.615 296.279C132.659 299.457 131.875 302.979 129.983 305.579C129.789 305.852 129.577 306.113 129.351 306.36H112.25C112.211 306.341 112.172 306.325 112.133 306.306L111.45 306.337C111.478 306.216 111.509 306.091 111.536 305.97C111.552 305.899 111.571 305.829 111.587 305.758C111.598 305.712 111.61 305.665 111.618 305.622C111.622 305.606 111.626 305.59 111.63 305.579C111.637 305.536 111.649 305.497 111.657 305.457C111.829 304.758 112.006 304.058 112.188 303.358C112.188 303.354 112.188 303.354 112.191 303.351C113.528 298.006 115.492 292.838 118.044 287.957C118.122 287.812 118.2 287.664 118.286 287.519C119.467 285.358 120.823 283.298 122.34 281.359C123.173 280.299 124.06 279.283 124.997 278.314C127.421 275.813 130.223 273.711 133.299 272.083C139.433 268.838 146.534 267.595 153.088 269.577C153.256 269.628 153.42 269.679 153.588 269.733Z" fill="#E6E6E6"/>
<path d="M153.549 269.951C145.034 271.645 137.268 275.985 131.354 282.353C130.056 283.702 128.979 285.246 128.162 286.931C127.419 288.597 127.135 290.433 127.339 292.247C127.496 293.942 127.852 295.657 127.595 297.361C127.45 298.231 127.123 299.061 126.636 299.795C126.149 300.53 125.512 301.154 124.768 301.625C122.943 302.846 120.79 303.339 118.667 303.747C116.309 304.2 113.854 304.633 111.887 306.108C111.648 306.286 111.385 305.905 111.623 305.727C115.046 303.161 119.633 303.699 123.377 301.887C125.124 301.042 126.628 299.664 127.061 297.705C127.439 295.992 127.073 294.223 126.9 292.508C126.675 290.741 126.885 288.946 127.511 287.28C128.24 285.559 129.256 283.975 130.516 282.596C133.302 279.446 136.564 276.754 140.185 274.62C144.303 272.16 148.811 270.425 153.514 269.489C153.805 269.431 153.838 269.893 153.549 269.951Z" fill="white"/>
<path d="M133.138 280.19C132.206 279.051 131.709 277.617 131.735 276.145C131.761 274.672 132.308 273.257 133.28 272.152C133.477 271.929 133.832 272.225 133.634 272.449C132.728 273.476 132.218 274.795 132.197 276.166C132.175 277.537 132.644 278.871 133.518 279.927C133.707 280.156 133.326 280.419 133.138 280.19Z" fill="white"/>
<path d="M127.147 291.398C130.134 291.722 133.134 290.905 135.547 289.112C135.786 288.934 136.049 289.315 135.811 289.493C133.296 291.354 130.172 292.197 127.064 291.853C126.768 291.82 126.852 291.365 127.147 291.398Z" fill="white"/>
<path d="M144.382 272.77C144.651 273.286 145.044 273.727 145.525 274.053C146.006 274.379 146.56 274.581 147.138 274.64C147.435 274.669 147.35 275.124 147.055 275.095C146.417 275.028 145.805 274.804 145.273 274.445C144.741 274.085 144.304 273.601 144.002 273.033C143.969 272.982 143.957 272.92 143.968 272.861C143.978 272.801 144.012 272.747 144.06 272.711C144.111 272.676 144.173 272.663 144.233 272.674C144.294 272.685 144.347 272.719 144.382 272.77Z" fill="white"/>
<path d="M289.118 307H74.3122C74.179 307 74.0513 306.947 73.9571 306.853C73.8629 306.758 73.81 306.63 73.81 306.497C73.81 306.363 73.8629 306.235 73.9571 306.141C74.0513 306.047 74.179 305.994 74.3122 305.994H289.118C289.184 305.994 289.249 306.006 289.31 306.032C289.372 306.057 289.427 306.094 289.474 306.141C289.521 306.187 289.558 306.243 289.583 306.304C289.608 306.365 289.622 306.431 289.622 306.497C289.622 306.563 289.608 306.629 289.583 306.69C289.558 306.751 289.521 306.806 289.474 306.853C289.427 306.9 289.372 306.937 289.31 306.962C289.249 306.987 289.184 307 289.118 307Z" fill="#CCCCCC"/>
</g>
<defs>
<clipPath id="clip0_15_13317">
<rect width="373" height="307" fill="white"/>
</clipPath>
</defs>
</svg>
