<svg width="362" height="204" viewBox="0 0 362 204" fill="none" xmlns="http://www.w3.org/2000/svg">
<g clip-path="url(#clip0_15_13470)">
<path d="M27.2356 203.898L26.8546 203.193C31.9627 200.43 38.32 196.99 41.6405 191.346C44.9137 185.783 44.9872 178.227 41.8321 171.629C39.1472 166.013 34.215 160.982 27.5689 157.079C26.258 156.31 24.8819 155.58 23.551 154.874C20.3342 153.169 17.0078 151.405 14.265 148.903C10.4874 145.457 7.62914 139.674 9.75949 134.523C10.4601 132.879 11.6075 131.464 13.0715 130.439C14.5354 129.415 16.2572 128.821 18.0414 128.726L18.0866 129.526C16.4521 129.613 14.8746 130.156 13.5332 131.095C12.1917 132.033 11.14 133.328 10.4975 134.834C8.51782 139.621 11.2339 145.053 14.8048 148.311C17.4726 150.745 20.7534 152.484 23.9261 154.166C25.2645 154.876 26.6486 155.61 27.9745 156.388C34.7589 160.372 39.8007 165.523 42.5548 171.283C45.8232 178.119 45.7375 185.962 42.3308 191.753C38.8972 197.589 32.4312 201.087 27.2356 203.898Z" fill="#F1F1F1"/>
<path d="M23.1185 132.95C26.9896 132.95 30.1277 131.425 30.1277 129.544C30.1277 127.663 26.9896 126.138 23.1185 126.138C19.2474 126.138 16.1093 127.663 16.1093 129.544C16.1093 131.425 19.2474 132.95 23.1185 132.95Z" fill="#F1F1F1"/>
<path d="M28.7258 155.387C32.5969 155.387 35.735 153.862 35.735 151.982C35.735 150.101 32.5969 148.576 28.7258 148.576C24.8547 148.576 21.7166 150.101 21.7166 151.982C21.7166 153.862 24.8547 155.387 28.7258 155.387Z" fill="#F1F1F1"/>
<path d="M15.9089 158.993C19.78 158.993 22.9181 157.469 22.9181 155.588C22.9181 153.707 19.78 152.182 15.9089 152.182C12.0378 152.182 8.89966 153.707 8.89966 155.588C8.89966 157.469 12.0378 158.993 15.9089 158.993Z" fill="#F1F1F1"/>
<path d="M35.9354 177.825C39.8065 177.825 42.9446 176.3 42.9446 174.419C42.9446 172.538 39.8065 171.013 35.9354 171.013C32.0643 171.013 28.9261 172.538 28.9261 174.419C28.9261 176.3 32.0643 177.825 35.9354 177.825Z" fill="#F1F1F1"/>
<path d="M49.9538 177.825C53.8249 177.825 56.9631 176.3 56.9631 174.419C56.9631 172.538 53.8249 171.013 49.9538 171.013C46.0827 171.013 42.9446 172.538 42.9446 174.419C42.9446 176.3 46.0827 177.825 49.9538 177.825Z" fill="#F1F1F1"/>
<path d="M362 6.18213H136.584V113.184H362V6.18213Z" fill="#E6E6E6"/>
<path d="M355.554 15.3577H143.03V104.633H355.554V15.3577Z" fill="white"/>
<path d="M361.904 0H136.488V9.57975H361.904V0Z" fill="#6C63FF"/>
<path d="M143.605 6.20666C144.585 6.20666 145.38 5.41171 145.38 4.43109C145.38 3.45047 144.585 2.65552 143.605 2.65552C142.624 2.65552 141.83 3.45047 141.83 4.43109C141.83 5.41171 142.624 6.20666 143.605 6.20666Z" fill="white"/>
<path d="M150.342 6.20666C151.322 6.20666 152.117 5.41171 152.117 4.43109C152.117 3.45047 151.322 2.65552 150.342 2.65552C149.362 2.65552 148.567 3.45047 148.567 4.43109C148.567 5.41171 149.362 6.20666 150.342 6.20666Z" fill="white"/>
<path d="M157.079 6.20666C158.06 6.20666 158.854 5.41171 158.854 4.43109C158.854 3.45047 158.06 2.65552 157.079 2.65552C156.099 2.65552 155.304 3.45047 155.304 4.43109C155.304 5.41171 156.099 6.20666 157.079 6.20666Z" fill="white"/>
<path d="M238.087 36.5444C237.859 36.5444 237.64 36.635 237.479 36.7964C237.318 36.9577 237.227 37.1765 237.227 37.4046C237.227 37.6327 237.318 37.8515 237.479 38.0128C237.64 38.1742 237.859 38.2648 238.087 38.2648H285.271C285.499 38.2648 285.717 38.1742 285.879 38.0128C286.04 37.8515 286.13 37.6327 286.13 37.4046C286.13 37.1765 286.04 36.9577 285.879 36.7964C285.717 36.635 285.499 36.5444 285.271 36.5444H238.087Z" fill="#E6E6E6"/>
<path d="M238.087 41.7061C237.859 41.7065 237.641 41.7974 237.48 41.9587C237.319 42.1199 237.229 42.3384 237.229 42.5662C237.229 42.7941 237.319 43.0126 237.48 43.1738C237.641 43.3351 237.859 43.426 238.087 43.4264H262.175C262.403 43.426 262.621 43.3351 262.782 43.1738C262.943 43.0126 263.033 42.7941 263.033 42.5662C263.033 42.3384 262.943 42.1199 262.782 41.9587C262.621 41.7974 262.403 41.7065 262.175 41.7061H238.087Z" fill="#E6E6E6"/>
<path d="M236.899 66.6893C236.671 66.6893 236.453 66.7799 236.291 66.9412C236.13 67.1025 236.04 67.3213 236.04 67.5495C236.04 67.7776 236.13 67.9964 236.291 68.1577C236.453 68.319 236.671 68.4097 236.899 68.4097H325.369C325.597 68.4097 325.816 68.319 325.977 68.1577C326.139 67.9964 326.229 67.7776 326.229 67.5495C326.229 67.3213 326.139 67.1025 325.977 66.9412C325.816 66.7799 325.597 66.6893 325.369 66.6893H236.899Z" fill="#E6E6E6"/>
<path d="M236.9 71.8509C236.672 71.8514 236.454 71.9423 236.293 72.1035C236.132 72.2648 236.042 72.4833 236.042 72.7111C236.042 72.9389 236.132 73.1574 236.293 73.3187C236.454 73.48 236.672 73.5708 236.9 73.5713H302.274C302.502 73.5708 302.72 73.48 302.881 73.3187C303.042 73.1574 303.132 72.9389 303.132 72.7111C303.132 72.4833 303.042 72.2648 302.881 72.1035C302.72 71.9423 302.502 71.8514 302.274 71.8509H236.9Z" fill="#E6E6E6"/>
<path d="M236.9 76.8958C236.672 76.8963 236.454 76.9871 236.293 77.1484C236.132 77.3096 236.042 77.5282 236.042 77.756C236.042 77.9838 236.132 78.2023 236.293 78.3636C236.454 78.5248 236.672 78.6157 236.9 78.6162H325.369C325.597 78.6157 325.815 78.5248 325.976 78.3636C326.137 78.2023 326.227 77.9838 326.227 77.756C326.227 77.5282 326.137 77.3096 325.976 77.1484C325.815 76.9871 325.597 76.8963 325.369 76.8958H236.9Z" fill="#E6E6E6"/>
<path d="M236.9 82.0574C236.672 82.0579 236.454 82.1488 236.293 82.31C236.132 82.4713 236.042 82.6898 236.042 82.9176C236.042 83.1454 236.132 83.364 236.293 83.5252C236.454 83.6865 236.672 83.7773 236.9 83.7778H302.274C302.502 83.7773 302.72 83.6865 302.881 83.5252C303.042 83.364 303.132 83.1454 303.132 82.9176C303.132 82.6898 303.042 82.4713 302.881 82.31C302.72 82.1488 302.502 82.0579 302.274 82.0574H236.9Z" fill="#E6E6E6"/>
<path d="M190.647 70.1803C194.782 70.1803 198.134 66.8268 198.134 62.69C198.134 58.5532 194.782 55.1997 190.647 55.1997C186.512 55.1997 183.159 58.5532 183.159 62.69C183.159 66.8268 186.512 70.1803 190.647 70.1803Z" fill="#A0616A"/>
<path d="M188.276 56.6978C188.276 56.6978 191.77 57.6341 193.579 58.0086C195.389 58.3831 195.202 57.322 195.202 57.322C195.202 57.322 197.573 57.634 197.448 57.3844C197.323 57.1347 198.446 55.8239 197.136 54.3259C195.826 52.8278 196.2 51.7043 196.2 51.7043H195.077L194.765 51.2673H193.018C193.018 51.2673 191.086 49.5729 187.654 50.0723C184.223 50.5716 180.164 51.8915 179.79 53.9513C179.739 54.2307 179.672 54.5411 179.595 54.869C178.656 58.8322 180.65 62.5404 182.718 66.0487C183.226 66.911 185.685 68.7911 185.622 67.5011C185.559 66.2112 183.409 63.3142 184.906 63.1269C186.404 62.9397 188.962 59.1321 188.276 56.6978Z" fill="#2F2E41"/>
<path d="M186.399 86.9047C184.954 86.789 183.52 86.5534 182.114 86.2004L182.193 84.7066L182.848 72.8299L182.854 72.7388H196.044L198.114 83.6744L198.393 85.1499C197.847 85.3624 197.294 85.5628 196.73 85.7389C196.724 85.7389 196.724 85.7449 196.718 85.7449C195.935 85.9878 195.14 86.2003 194.338 86.3764C193.273 86.6063 192.195 86.7726 191.109 86.8743C190.27 86.9576 189.428 86.9981 188.585 86.9957C187.856 86.9958 187.122 86.9654 186.399 86.9047Z" fill="#6C63FF"/>
<path d="M177.92 84.7917C177.373 84.5549 176.845 84.2998 176.323 84.0327L176.099 83.9173C175.947 83.8384 175.789 83.7533 175.638 83.6683C175.431 83.553 175.231 83.4376 175.037 83.3223C174.848 83.2129 174.654 83.0976 174.466 82.9822C174.454 82.9761 174.448 82.9701 174.436 82.9701C173.78 82.5511 173.137 82.12 172.518 81.6525C172.415 81.5735 172.311 81.4946 172.208 81.4157L172.099 79.667L172.257 79.5698L182.848 72.8299L182.994 72.7388L183.006 72.7328L184.499 72.7388V78.3007C185.343 79.5212 185.914 82.0775 186.266 85.4231C186.314 85.9028 186.357 86.3947 186.399 86.9047C184.954 86.789 183.52 86.5534 182.114 86.2003C181.962 86.17 181.816 86.1336 181.665 86.091C180.78 85.8595 179.909 85.5798 179.055 85.2531C178.794 85.1559 178.539 85.0527 178.284 84.9495L178.26 84.9374C178.15 84.8888 178.029 84.8402 177.92 84.7917Z" fill="#2F2E41"/>
<path d="M175.638 83.6683C175.431 83.553 175.231 83.4376 175.037 83.3223C174.848 83.2129 174.654 83.0976 174.466 82.9822C174.454 82.9762 174.448 82.9701 174.436 82.9701C173.78 82.5511 173.137 82.12 172.518 81.6525C172.415 81.5735 172.311 81.4946 172.208 81.4157C172.16 81.3732 172.111 81.3368 172.056 81.2942C171.668 80.9967 171.292 80.687 170.927 80.3592C170.909 80.347 170.897 80.3288 170.879 80.3167C171.246 80.0338 171.659 79.8142 172.099 79.667L172.53 79.7945L175.601 80.7174L175.619 81.9621L175.638 83.6683Z" fill="#2F2E41"/>
<path d="M201.501 83.6866C201.319 83.7837 201.137 83.8809 200.955 83.9719C200.912 83.9962 200.876 84.0145 200.839 84.0327C200.596 84.1541 200.36 84.2755 200.117 84.3909C200.111 84.397 200.099 84.397 200.099 84.4031C200.087 84.4091 200.068 84.4152 200.056 84.4213C199.51 84.6824 198.958 84.9252 198.393 85.1499C197.847 85.3624 197.294 85.5628 196.73 85.7389C196.724 85.7389 196.724 85.745 196.718 85.745C195.935 85.9878 195.14 86.2004 194.338 86.3764C194.329 85.8777 194.395 85.3804 194.533 84.9009L194.539 84.8159L195.061 76.3638L194.363 72.7388L196.366 72.4413L207.382 78.3736C207.382 78.3736 206.168 79.588 201.185 82.1747C200.745 82.4034 201.391 83.1644 201.501 83.6866Z" fill="#2F2E41"/>
<path d="M190.976 85.4171C190.187 85.4899 189.386 85.5264 188.584 85.5264C187.807 85.5264 187.036 85.496 186.266 85.4231C186.314 85.9029 186.357 86.3947 186.399 86.9047C187.122 86.9654 187.856 86.9958 188.584 86.9958C189.428 86.9982 190.27 86.9576 191.109 86.8743C192.195 86.7726 193.273 86.6064 194.338 86.3764C194.329 85.8777 194.395 85.3804 194.533 84.901L194.539 84.8159C193.367 85.1012 192.176 85.3021 190.976 85.4171ZM213.913 51.3413C212.631 47.6555 210.56 44.294 207.845 41.4912C205.13 38.6883 201.837 36.5115 198.195 35.1127C194.553 33.7138 190.65 33.1265 186.757 33.3917C182.865 33.6569 179.078 34.7683 175.659 36.6482C172.24 38.5282 169.272 41.1316 166.963 44.2768C164.653 47.422 163.057 51.0334 162.286 54.8591C161.514 58.6847 161.587 62.6327 162.497 66.4275C163.408 70.2224 165.135 73.7729 167.559 76.8313C167.801 77.1349 168.05 77.4385 168.305 77.73C168.33 77.7543 168.342 77.7725 168.36 77.7907C168.986 78.5137 169.653 79.2009 170.357 79.8491C170.527 80.007 170.703 80.1648 170.879 80.3166C170.897 80.3288 170.909 80.347 170.927 80.3591C171.291 80.687 171.668 80.9967 172.056 81.2942C172.111 81.3367 172.16 81.3731 172.208 81.4157C172.311 81.4946 172.415 81.5735 172.518 81.6525C173.137 82.12 173.78 82.5511 174.436 82.9701C174.448 82.9701 174.454 82.9761 174.466 82.9822C174.654 83.0976 174.848 83.2129 175.036 83.3222C175.231 83.4376 175.431 83.553 175.638 83.6683C175.789 83.7533 175.947 83.8383 176.099 83.9173L176.323 84.0326C176.845 84.2998 177.373 84.5548 177.92 84.7917C178.029 84.8402 178.15 84.8888 178.26 84.9374L178.284 84.9495C178.539 85.0527 178.794 85.1559 179.055 85.2531C179.909 85.5798 180.78 85.8595 181.665 86.0911C181.816 86.1336 181.962 86.17 182.114 86.2003C183.52 86.5534 184.954 86.789 186.399 86.9047C187.122 86.9654 187.856 86.9958 188.584 86.9958C189.428 86.9982 190.27 86.9576 191.109 86.8743C192.195 86.7726 193.273 86.6064 194.338 86.3764C195.14 86.2004 195.935 85.9878 196.718 85.745C196.724 85.745 196.724 85.7389 196.73 85.7389C197.294 85.5628 197.847 85.3624 198.393 85.1499C198.958 84.9252 199.51 84.6824 200.056 84.4213C200.068 84.4152 200.086 84.4091 200.099 84.4031C200.099 84.397 200.111 84.397 200.117 84.3909C200.36 84.2755 200.596 84.1541 200.839 84.0327C200.876 84.0144 200.912 83.9963 200.955 83.9719C201.137 83.8809 201.318 83.7837 201.501 83.6866C201.513 83.6805 201.519 83.6744 201.531 83.6683C202.011 83.4012 202.484 83.1219 202.952 82.8244C203.079 82.7454 203.206 82.6665 203.334 82.5754C203.522 82.46 203.704 82.3325 203.88 82.205C204.117 82.0411 204.353 81.8711 204.584 81.695C204.661 81.6457 204.734 81.5909 204.803 81.531C205.367 81.106 205.913 80.6567 206.435 80.183C210.394 76.6546 213.217 72.031 214.548 66.897C215.879 61.7631 215.658 56.3495 213.913 51.3413ZM205.98 78.6165C205.323 79.2349 204.634 79.8186 203.917 80.3652C203.759 80.4866 203.595 80.6081 203.431 80.7174C203.273 80.8388 203.115 80.9542 202.952 81.0635C202.812 81.1606 202.672 81.2578 202.527 81.3489C202.514 81.361 202.496 81.3671 202.484 81.3792C202.381 81.4521 202.272 81.5189 202.169 81.5857C201.847 81.786 201.513 81.9864 201.185 82.1747C201.106 82.2172 201.033 82.2657 200.955 82.3082C200.912 82.3325 200.87 82.3568 200.821 82.3811C200.639 82.4843 200.457 82.5754 200.275 82.6726C200.25 82.6908 200.22 82.6968 200.196 82.7151C200.187 82.7165 200.178 82.7207 200.172 82.7272C200.044 82.794 199.917 82.8547 199.789 82.9154C199.68 82.9701 199.577 83.0247 199.467 83.0733C199.024 83.2858 198.569 83.4862 198.114 83.6744C197.634 83.8687 197.149 84.0448 196.657 84.2087C196.536 84.2512 196.408 84.2998 196.281 84.3362C195.704 84.5184 195.128 84.6824 194.539 84.8159C193.367 85.1012 192.176 85.3021 190.976 85.4171C190.187 85.4899 189.386 85.5264 188.584 85.5264C187.807 85.5264 187.036 85.496 186.266 85.4231C184.891 85.2973 183.528 85.0576 182.193 84.7066C182.144 84.6945 182.09 84.6824 182.041 84.6702C180.946 84.3845 179.872 84.0192 178.83 83.5773C178.776 83.553 178.715 83.5347 178.666 83.5105C178.605 83.4862 178.551 83.468 178.502 83.4436C178.442 83.4194 178.387 83.3951 178.333 83.3708C177.877 83.1704 177.434 82.9518 176.991 82.7272L176.785 82.6179C176.39 82.4114 176.002 82.1989 175.619 81.9621C175.486 81.8892 175.346 81.8043 175.213 81.7192C175.061 81.6281 174.909 81.531 174.763 81.4338C174.727 81.4096 174.691 81.3853 174.654 81.361C174.314 81.1302 173.968 80.8995 173.641 80.6506C173.41 80.4806 173.185 80.3166 172.961 80.1405C172.815 80.0312 172.669 79.9159 172.53 79.7945C172.439 79.7276 172.348 79.6487 172.257 79.5698C172.135 79.4666 172.014 79.3633 171.893 79.254C171.704 79.1022 171.528 78.9322 171.358 78.7743C170.675 78.1443 170.028 77.4753 169.422 76.7706C169.216 76.5399 169.021 76.3091 168.833 76.0663C168.79 76.0184 168.749 75.9677 168.712 75.9145C165.656 72.0555 163.789 67.3903 163.339 62.4879C162.888 57.5856 163.874 52.6581 166.175 48.3065C168.476 43.9549 171.994 40.3674 176.299 37.9817C180.603 35.5959 185.509 34.515 190.418 34.8709C195.326 35.2267 200.025 37.004 203.941 39.9858C207.856 42.9675 210.82 47.0249 212.47 51.663C214.12 56.301 214.385 61.3192 213.233 66.1054C212.08 70.8915 209.56 75.2387 205.98 78.6165Z" fill="#3F3D56"/>
<path d="M65.4606 199.013L70.3711 199.012L72.707 180.065L65.4598 180.066L65.4606 199.013Z" fill="#A0616A"/>
<path d="M64.2083 197.409L73.8786 197.409H73.879C75.5134 197.409 77.0809 198.058 78.2366 199.214C79.3923 200.37 80.0416 201.938 80.0417 203.573V203.774L64.2085 203.774L64.2083 197.409Z" fill="#2F2E41"/>
<path d="M83.885 199.013L88.7954 199.012L91.1313 180.065L83.8842 180.066L83.885 199.013Z" fill="#A0616A"/>
<path d="M82.6326 197.409L92.3029 197.409H92.3033C93.9377 197.409 95.5052 198.058 96.6609 199.214C97.8166 200.37 98.4659 201.938 98.466 203.573V203.774L82.6329 203.774L82.6326 197.409Z" fill="#2F2E41"/>
<path d="M50.5613 124.144C50.9631 123.714 51.2658 123.2 51.4479 122.64C51.6299 122.08 51.687 121.487 51.6151 120.902C51.5432 120.317 51.344 119.756 51.0316 119.256C50.7192 118.757 50.3012 118.332 49.8069 118.012L53.2187 104.107L46.2125 106.604L44.0468 119.426C43.5641 120.292 43.4159 121.306 43.6301 122.274C43.8444 123.242 44.4062 124.098 45.2092 124.68C46.0122 125.261 47.0006 125.528 47.987 125.429C48.9734 125.33 49.8893 124.873 50.5613 124.144Z" fill="#9E616A"/>
<path d="M102.686 122.942C102.285 122.512 101.982 121.998 101.8 121.438C101.618 120.878 101.561 120.285 101.633 119.7C101.704 119.115 101.904 118.554 102.216 118.054C102.528 117.555 102.946 117.13 103.441 116.81L100.029 102.905L107.035 105.402L109.201 118.224C109.684 119.09 109.832 120.104 109.618 121.072C109.403 122.04 108.841 122.896 108.038 123.478C107.235 124.059 106.247 124.326 105.261 124.227C104.274 124.128 103.358 123.671 102.686 122.942Z" fill="#9E616A"/>
<path d="M57.022 114.397L63.8281 194.157L73.7869 193.248L77.7725 131.605L81.3204 156.013L82.0309 194.784L91.0428 194.183L96.047 152.474L94.8194 112.079L60.6075 108.613L57.022 114.397Z" fill="#2F2E41"/>
<path d="M75.7447 41.8174C81.4486 41.8174 86.0726 37.1918 86.0726 31.4858C86.0726 25.7798 81.4486 21.1541 75.7447 21.1541C70.0407 21.1541 65.4167 25.7798 65.4167 31.4858C65.4167 37.1918 70.0407 41.8174 75.7447 41.8174Z" fill="#A0616A"/>
<path d="M72.4742 23.2205C72.4742 23.2205 77.2939 24.5119 79.7898 25.0285C82.2857 25.5451 82.0275 24.0814 82.0275 24.0814C82.0275 24.0814 85.298 24.5119 85.1259 24.1675C84.9537 23.8231 86.5029 22.0151 84.6955 19.9488C82.8882 17.8825 83.4046 16.3327 83.4046 16.3327H81.8554L81.425 15.73H79.0152C79.0152 15.73 76.3509 13.3929 71.6172 14.0817C66.8836 14.7704 61.2856 16.591 60.7692 19.4322C60.6991 19.8176 60.6069 20.2457 60.4999 20.6979C59.2055 26.1646 61.9557 31.2794 64.8082 36.1186C65.5093 37.3079 68.9003 39.9012 68.8135 38.122C68.7268 36.3427 65.761 32.3467 67.8266 32.0884C69.8922 31.8301 73.4209 26.5783 72.4742 23.2205Z" fill="#2F2E41"/>
<path d="M64.9975 45.3466H83.1862L96.047 113.291C96.047 113.291 84.8347 114.25 78.4262 116.654C72.0178 119.058 61.3644 111.162 61.3644 111.162L64.9975 45.3466Z" fill="#6C63FF"/>
<path d="M67.2683 53.0194V45.3466L65.2088 45.334L50.1622 54.9041L53.4272 107.337C53.4272 107.337 57.2915 124.83 63.1527 124.648C69.0139 124.467 73.5332 62.107 67.2683 53.0194Z" fill="#2F2E41"/>
<path d="M54.9954 56.3525L50.1622 54.9041C50.1622 54.9041 46.5843 55.9518 46.5843 59.5579C46.5843 63.1639 43.5015 114.397 43.5015 114.397L53.2947 115.263L55.3959 89.2076L54.9954 56.3525Z" fill="#2F2E41"/>
<path d="M81.8307 50.3424L80.8673 45.3466L83.6331 44.9334L93.6463 48.9401C93.6463 48.9401 102.658 114.851 98.6529 116.854C94.6476 118.857 91.9433 117.305 91.9433 117.305C91.9433 117.305 78.7694 68.6932 81.1011 62.1222L81.8307 50.3424Z" fill="#2F2E41"/>
<path d="M86.6371 49.9418L88.346 49.1977C88.346 49.1977 93.3618 46.7112 96.2076 51.7322C99.0535 56.7532 109.067 112.847 109.067 112.847L100.828 114.397L94.6681 94.2097L86.6371 49.9418Z" fill="#2F2E41"/>
<path d="M153.002 204H0.400528C0.294301 204 0.192425 203.958 0.117312 203.883C0.0421981 203.807 0 203.706 0 203.599C0 203.493 0.0421981 203.391 0.117312 203.316C0.192425 203.241 0.294301 203.199 0.400528 203.199H153.002C153.108 203.199 153.21 203.241 153.285 203.316C153.36 203.391 153.402 203.493 153.402 203.599C153.402 203.706 153.36 203.807 153.285 203.883C153.21 203.958 153.108 204 153.002 204Z" fill="#CACACA"/>
</g>
<defs>
<clipPath id="clip0_15_13470">
<rect width="362" height="204" fill="white"/>
</clipPath>
</defs>
</svg>
