<svg width="368" height="283" viewBox="0 0 368 283" fill="none" xmlns="http://www.w3.org/2000/svg">
<g clip-path="url(#clip0_15_13179)">
<path d="M246.613 79.6851C254.508 58.4651 273.16 40.1295 295.701 37.9485C282.149 58.5063 276.308 83.1936 279.21 107.643C280.364 117.067 282.628 127.43 277.546 135.452C274.384 140.443 268.811 143.516 263.067 144.903C257.322 146.289 251.336 146.182 245.428 146.066L244.105 146.719C239.949 124.464 238.719 100.905 246.613 79.6851Z" fill="#F0F0F0"/>
<path d="M295.81 38.4109C280.444 49.1431 268.851 64.4429 262.677 82.1372C261.378 85.936 260.39 89.9027 260.333 93.9366C260.308 97.8691 261.337 101.737 263.312 105.137C265.09 108.345 267.281 111.42 268.248 115.004C269.267 118.782 268.436 122.604 266.354 125.868C263.806 129.861 259.974 132.701 256.131 135.348C251.863 138.287 247.384 141.273 244.773 145.89C244.457 146.449 243.607 145.926 243.923 145.367C248.466 137.334 258 134.416 263.832 127.593C266.554 124.409 268.332 120.386 267.491 116.146C266.755 112.439 264.499 109.266 262.67 106.033C260.75 102.639 259.496 99.1168 259.35 95.1899C259.2 91.1729 260.034 87.1593 261.231 83.3439C264.009 74.7123 268.127 66.571 273.435 59.2183C279.446 50.7932 286.854 43.4582 295.34 37.5306C295.865 37.1639 296.332 38.0466 295.81 38.4109Z" fill="white"/>
<path d="M264.33 76.3228C261.501 74.8843 259.275 72.4874 258.051 69.56C256.827 66.6327 256.683 63.3655 257.646 60.3421C257.843 59.731 258.802 60.0082 258.605 60.6201C257.703 63.4338 257.837 66.4772 258.983 69.2008C260.128 71.9244 262.21 74.1489 264.852 75.4727C265.426 75.7611 264.9 76.6095 264.33 76.3228Z" fill="white"/>
<path d="M262.196 103.629C268.383 101.676 273.606 97.4632 276.823 91.8309C277.142 91.2726 277.992 91.7959 277.674 92.3536C274.314 98.2084 268.87 102.581 262.428 104.6C261.814 104.792 261.585 103.82 262.196 103.629Z" fill="white"/>
<path d="M280.129 51.9263C281.108 52.7109 282.266 53.2402 283.5 53.4668C284.734 53.6933 286.004 53.6099 287.198 53.2241C287.809 53.0245 288.037 53.9964 287.429 54.1948C286.109 54.6148 284.705 54.7052 283.342 54.4579C281.978 54.2107 280.696 53.6333 279.607 52.7763C279.497 52.7041 279.419 52.593 279.389 52.4655C279.359 52.3381 279.378 52.2038 279.443 52.09C279.513 51.9778 279.624 51.8977 279.752 51.867C279.881 51.8364 280.016 51.8577 280.129 51.9263Z" fill="white"/>
<path d="M350.032 92.0387C349.653 92.1742 349.275 92.3097 348.895 92.4534C343.819 94.3019 338.901 96.5596 334.191 99.2042C333.824 99.4029 333.454 99.6098 333.093 99.8186C321.814 106.311 311.837 114.841 303.672 124.974C300.426 129.009 297.493 133.286 294.896 137.766C291.311 143.953 287.916 150.948 282.65 155.457C282.106 155.933 281.533 156.376 280.934 156.782L245.004 148.282C244.932 148.222 244.858 148.17 244.786 148.109L243.336 147.835C243.453 147.595 243.581 147.348 243.699 147.108C243.766 146.968 243.842 146.83 243.91 146.69C243.957 146.598 244.006 146.505 244.043 146.419C244.059 146.388 244.075 146.357 244.089 146.335C244.127 146.248 244.171 146.172 244.207 146.094C244.915 144.713 245.633 143.334 246.363 141.957C246.365 141.949 246.365 141.949 246.375 141.943C251.962 131.469 258.473 121.369 266.31 112.579C266.546 112.314 266.783 112.041 267.035 111.781C270.59 107.838 274.461 104.192 278.61 100.88C280.887 99.0737 283.255 97.3837 285.703 95.8166C292.038 91.7797 298.968 88.764 306.239 86.88C320.736 83.1265 336.272 84.0497 349.06 91.4627C349.387 91.6526 349.707 91.8406 350.032 92.0387Z" fill="#F0F0F0"/>
<path d="M349.843 92.4754C331.111 91.7955 312.64 97.0335 297.055 107.446C293.73 109.697 290.553 112.269 288.078 115.456C285.689 118.581 284.182 122.288 283.711 126.192C283.199 129.823 283.096 133.597 281.709 137.041C280.248 140.671 277.283 143.223 273.655 144.575C269.215 146.23 264.446 146.191 259.783 145.991C254.606 145.769 249.232 145.457 244.366 147.572C243.777 147.828 243.413 146.899 244.002 146.643C252.467 142.963 261.837 146.372 270.603 144.435C274.693 143.531 278.536 141.389 280.417 137.497C282.062 134.094 282.172 130.202 282.659 126.521C283.17 122.655 284.289 119.088 286.538 115.865C288.837 112.567 291.921 109.865 295.174 107.539C302.59 102.319 310.781 98.2974 319.447 95.6214C329.32 92.5126 339.653 91.1151 349.998 91.4895C350.638 91.5129 350.479 92.4987 349.843 92.4754Z" fill="white"/>
<path d="M301.876 103.798C300.484 100.946 300.151 97.6932 300.936 94.6189C301.721 91.5447 303.574 88.8496 306.164 87.015C306.689 86.6456 307.288 87.4442 306.762 87.8141C304.347 89.518 302.622 92.0287 301.896 94.8929C301.171 97.7572 301.493 100.786 302.806 103.434C303.09 104.009 302.159 104.37 301.876 103.798Z" fill="white"/>
<path d="M283.728 124.316C289.844 126.48 296.551 126.26 302.512 123.7C303.103 123.446 303.466 124.375 302.876 124.629C296.668 127.282 289.688 127.497 283.328 125.231C282.722 125.014 283.125 124.101 283.728 124.316Z" fill="white"/>
<path d="M329.184 93.8285C329.493 95.044 330.098 96.1637 330.947 97.0872C331.796 98.0107 332.861 98.709 334.046 99.1194C334.654 99.328 334.251 100.241 333.646 100.034C332.339 99.5742 331.164 98.8016 330.224 97.7834C329.284 96.7652 328.608 95.5323 328.254 94.1926C328.21 94.0691 328.215 93.9335 328.268 93.8134C328.32 93.6933 328.417 93.5977 328.537 93.546C328.66 93.4985 328.797 93.5014 328.918 93.5543C329.04 93.6072 329.135 93.7058 329.184 93.8285Z" fill="white"/>
<path d="M38.4349 274.192C17.866 264.72 0.986408 244.742 0.513229 222.106C19.9944 237.168 44.1766 244.856 68.7814 243.809C78.269 243.37 88.7758 241.895 96.3929 247.567C101.132 251.097 103.776 256.884 104.726 262.715C105.675 268.547 105.116 274.506 104.555 280.387L105.106 281.755C82.594 284.217 59.0038 283.665 38.4349 274.192Z" fill="#F0F0F0"/>
<path d="M0.982667 222.033C10.5267 238.161 24.9114 250.874 42.0937 258.364C45.7845 259.946 49.6663 261.23 53.6855 261.591C57.6059 261.914 61.541 261.18 65.082 259.468C68.4158 257.938 71.6486 255.986 75.2964 255.293C79.1413 254.562 82.8904 255.679 85.9886 258.001C89.7793 260.843 92.3226 264.877 94.6725 268.908C97.2817 273.384 99.921 278.075 104.329 281.026C104.863 281.384 104.277 282.192 103.743 281.835C96.0743 276.699 93.884 266.975 87.5187 260.645C84.5486 257.692 80.6701 255.615 76.378 256.134C72.6247 256.587 69.2893 258.597 65.9272 260.175C62.3969 261.833 58.789 262.818 54.8612 262.667C50.8433 262.513 46.9031 261.378 43.188 259.897C34.7885 256.476 26.9794 251.755 20.0466 245.909C12.0972 239.28 5.34059 231.341 0.0690901 222.435C-0.256975 221.884 0.658755 221.485 0.982667 222.033Z" fill="white"/>
<path d="M36.419 256.278C34.7707 258.989 32.2119 261.026 29.1997 262.026C26.1875 263.025 22.9179 262.922 19.975 261.734C19.3804 261.491 19.7293 260.556 20.3247 260.799C23.0631 261.91 26.1087 262.006 28.9118 261.07C31.7148 260.133 34.0907 258.226 35.6107 255.692C35.9416 255.142 36.7481 255.73 36.419 256.278Z" fill="white"/>
<path d="M63.4939 260.466C62.0127 254.152 58.2051 248.627 52.8304 244.994C52.2976 244.634 52.8838 243.827 53.4159 244.186C59.0019 247.977 62.9525 253.734 64.4795 260.309C64.6246 260.936 63.6382 261.09 63.4939 260.466Z" fill="white"/>
<path d="M13.2789 238.685C14.1354 237.769 14.7508 236.654 15.0699 235.441C15.389 234.228 15.4018 232.955 15.1072 231.736C14.9542 231.112 15.9408 230.958 16.0928 231.579C16.412 232.927 16.3962 234.333 16.0466 235.674C15.697 237.014 15.0243 238.249 14.0873 239.27C14.007 239.374 13.8903 239.443 13.7608 239.464C13.6314 239.484 13.4989 239.455 13.3904 239.381C13.2837 239.303 13.2122 239.186 13.1913 239.056C13.1705 238.926 13.2019 238.792 13.2789 238.685Z" fill="white"/>
<path d="M58.566 172.03C58.6727 172.417 58.7793 172.804 58.8938 173.194C60.3542 178.394 62.2347 183.467 64.5168 188.362C64.6872 188.743 64.8657 189.127 65.0467 189.503C70.6705 201.238 78.4248 211.827 87.9152 220.732C91.6949 224.272 95.7386 227.519 100.011 230.446C105.912 234.488 112.632 238.401 116.732 243.99C117.166 244.569 117.564 245.174 117.923 245.801L106.733 280.977C106.667 281.044 106.609 281.114 106.544 281.181L106.161 282.606C105.93 282.471 105.694 282.325 105.463 282.19C105.328 282.112 105.197 282.026 105.062 281.948C104.974 281.893 104.885 281.838 104.802 281.794C104.772 281.776 104.743 281.758 104.721 281.742C104.638 281.698 104.565 281.648 104.49 281.606C103.166 280.796 101.844 279.976 100.527 279.144C100.519 279.142 100.519 279.142 100.513 279.131C90.4882 272.771 80.9064 265.518 72.7304 257.041C72.4845 256.786 72.2305 256.529 71.9897 256.258C68.3255 252.416 64.9815 248.282 61.9911 243.896C60.3614 241.49 58.8545 239.002 57.4764 236.443C53.9283 229.823 51.4437 222.687 50.1138 215.296C47.4647 200.561 49.5587 185.143 57.9182 172.955C58.1323 172.643 58.3439 172.339 58.566 172.03Z" fill="#F0F0F0"/>
<path d="M58.9874 172.251C56.8946 190.873 60.7243 209.682 69.9326 226.004C71.9266 229.489 74.2528 232.851 77.2443 235.559C80.1804 238.176 83.764 239.959 87.6226 240.723C91.206 241.507 94.9624 241.895 98.2927 243.537C101.803 245.268 104.124 248.416 105.199 252.136C106.514 256.686 106.115 261.438 105.564 266.071C104.951 271.216 104.234 276.549 105.976 281.559C106.187 282.166 105.232 282.458 105.022 281.852C101.991 273.136 106.099 264.053 104.828 255.168C104.235 251.022 102.389 247.029 98.6497 244.86C95.3798 242.963 91.5065 242.56 87.8713 241.796C84.0543 240.995 80.5807 239.609 77.5354 237.125C74.4202 234.583 71.9577 231.306 69.8833 227.887C65.2371 220.1 61.8445 211.63 59.8299 202.789C57.4747 192.712 56.8611 182.306 58.0157 172.022C58.0874 171.386 59.0587 171.618 58.9874 172.251Z" fill="white"/>
<path d="M66.6582 220.923C63.7091 222.096 60.4391 222.182 57.4321 221.167C54.4252 220.152 51.877 218.101 50.2427 215.382C49.9139 214.83 50.7557 214.293 51.0849 214.846C52.6021 217.381 54.9759 219.291 57.7779 220.231C60.58 221.17 63.6256 221.077 66.3652 219.969C66.9609 219.729 67.2504 220.684 66.6582 220.923Z" fill="white"/>
<path d="M85.7532 240.564C88.3735 234.63 88.6606 227.928 86.557 221.792C86.3481 221.184 87.3025 220.892 87.5112 221.499C89.6882 227.888 89.3754 234.863 86.6351 241.032C86.3735 241.619 85.4931 241.149 85.7532 240.564Z" fill="white"/>
<path d="M58.777 192.948C60.0126 192.732 61.1752 192.212 62.1604 191.436C63.1455 190.66 63.9224 189.651 64.4213 188.5C64.6753 187.909 65.5554 188.381 65.3031 188.968C64.746 190.236 63.8867 191.349 62.8001 192.21C61.7135 193.07 60.4328 193.651 59.0699 193.902C58.9434 193.936 58.8085 193.921 58.6927 193.86C58.5769 193.798 58.4888 193.695 58.4463 193.571C58.4082 193.445 58.4215 193.308 58.4834 193.191C58.5453 193.075 58.6508 192.987 58.777 192.948Z" fill="white"/>
<path d="M85.795 149.105C67.6196 131.218 59.9432 112.556 64.1792 96.5596C69.6153 76.031 93.7654 61.8373 130.437 57.6178L130.573 58.7953C94.4114 62.9558 70.6297 76.831 65.3252 96.8628C61.2027 112.431 68.7677 130.684 86.6267 148.261L85.795 149.105Z" fill="#F0F0F0"/>
<path d="M261.156 212.601C238.473 212.601 213.822 209.231 189.338 202.75C159.059 194.737 131.297 182.641 109.053 167.77L109.711 166.785C131.849 181.584 159.488 193.624 189.641 201.605C216.89 208.817 244.343 212.159 269.023 211.277L269.066 212.461C266.459 212.554 263.823 212.601 261.156 212.601Z" fill="#F0F0F0"/>
<path d="M313.196 205.148L312.817 204.026C333.104 197.168 345.793 186.121 349.512 172.079C354.239 154.227 343.97 133.511 320.595 113.747C297.1 93.8831 263.221 77.4007 225.196 67.3371L225.5 66.1914C263.69 76.2993 297.735 92.8669 321.36 112.843C345.104 132.918 355.509 154.063 350.658 172.382C346.833 186.827 333.879 198.158 313.196 205.148Z" fill="#F0F0F0"/>
<path d="M126.908 213.096C82.3352 193.333 47.9886 167.692 30.1955 140.898L31.183 140.242C48.853 166.851 83.0193 192.34 127.388 212.013L126.908 213.096Z" fill="#F0F0F0"/>
<path d="M283.622 247.334C279.024 247.334 274.348 247.232 269.594 247.026L269.645 245.843C305.126 247.378 336.432 243.133 360.184 233.564L360.627 234.664C339.908 243.01 313.499 247.334 283.622 247.334Z" fill="#F0F0F0"/>
<path d="M257.76 58.6805C250.393 56.2825 242.815 54.0498 235.238 52.0442C191.631 40.503 148.765 36.4053 111.272 40.1963L111.153 39.017C148.785 35.2135 191.798 39.3211 235.541 50.8985C243.14 52.9099 250.739 55.149 258.127 57.5538L257.76 58.6805Z" fill="#F0F0F0"/>
<path d="M57.9382 150.883C39.7629 132.995 32.0865 114.334 36.3225 98.3372C41.7586 77.8087 65.9087 63.6149 102.58 59.3954L102.716 60.5729C66.5546 64.7334 42.773 78.6087 37.4685 98.6404C33.346 114.208 40.911 132.462 58.77 150.039L57.9382 150.883Z" fill="#F0F0F0"/>
<path d="M233.3 214.378C210.616 214.378 185.966 211.008 161.481 204.528C131.203 196.514 103.44 184.418 81.196 169.548L81.8547 168.563C103.992 183.361 131.631 195.402 161.784 203.382C189.033 210.595 216.487 213.936 241.166 213.054L241.209 214.238C238.603 214.332 235.966 214.379 233.3 214.378Z" fill="#F0F0F0"/>
<path d="M285.34 206.926L284.96 205.803C305.248 198.946 317.937 187.899 321.655 173.856C326.383 156.005 316.113 135.289 292.738 115.525C269.244 95.6606 235.364 79.1783 197.34 69.1147L197.643 67.969C235.834 78.0769 269.878 94.6445 293.503 114.62C317.247 134.696 327.653 155.841 322.802 174.159C318.976 188.605 306.022 199.935 285.34 206.926Z" fill="#F0F0F0"/>
<path d="M99.0511 214.874C54.4784 195.11 20.1319 169.47 2.33881 142.675L3.32625 142.02C20.9963 168.629 55.1626 194.117 99.5315 213.79L99.0511 214.874Z" fill="#F0F0F0"/>
<path d="M255.765 249.112C251.167 249.112 246.491 249.009 241.737 248.804L241.788 247.62C277.269 249.156 308.575 244.911 332.327 235.342L332.77 236.441C312.051 244.788 285.642 249.112 255.765 249.112Z" fill="#F0F0F0"/>
<path d="M229.903 60.4581C222.536 58.0601 214.959 55.8274 207.381 53.8218C163.774 42.2806 120.908 38.1829 83.4152 41.9739L83.296 40.7946C120.928 36.9911 163.941 41.0987 207.684 52.6761C215.283 54.6875 222.882 56.9265 230.27 59.3314L229.903 60.4581Z" fill="#F0F0F0"/>
<path d="M112.142 148.453C109.706 148.456 107.371 149.424 105.649 151.146C103.927 152.868 102.958 155.202 102.955 157.637C99.4624 183.348 98.296 209.321 99.47 235.24C99.5397 236.895 99.617 238.409 99.7067 239.87C99.837 242.281 100.003 244.828 100.198 247.438C100.311 248.979 100.43 250.524 100.56 252.064C100.777 254.571 101.016 257.12 101.271 259.638C101.43 261.176 101.596 262.721 101.774 264.26C102.114 267.284 102.5 270.383 102.953 273.735C102.948 276.177 103.914 278.52 105.637 280.25C107.36 281.979 109.7 282.954 112.142 282.96H266.243C268.679 282.957 271.014 281.988 272.736 280.266C274.459 278.545 275.427 276.21 275.43 273.775L275.437 273.711C276.123 270.585 276.763 267.399 277.337 264.241C277.645 262.576 277.91 261.064 278.149 259.619C278.581 256.987 278.966 254.44 279.291 252.048C279.513 250.443 279.715 248.888 279.889 247.425C280.176 245.031 280.436 242.557 280.682 239.86C280.818 238.395 280.941 236.881 281.061 235.233V235.232C282.946 209.253 281.051 183.137 275.437 157.701L275.43 157.637C275.427 155.202 274.458 152.868 272.736 151.146C271.014 149.424 268.679 148.456 266.243 148.453L112.142 148.453Z" fill="#21005D"/>
<path d="M195.175 187.772C161.785 187.772 126.404 184.739 80.098 178.67H80.0931C77.6925 178.667 75.3776 177.778 73.5922 176.174C71.8068 174.569 70.6765 172.363 70.418 169.977C70.3759 169.618 70.3555 169.257 70.357 168.896V141.046C70.3559 140.987 70.3586 140.927 70.3651 140.868C70.4172 138.309 71.4687 135.872 73.2948 134.079C75.1208 132.285 77.5764 131.277 80.1365 131.269C160.699 120.318 209.638 120.32 298.285 131.272H298.289C300.848 131.288 303.298 132.305 305.117 134.104C306.936 135.903 307.979 138.342 308.023 140.9C308.028 140.948 308.03 140.997 308.028 141.046V168.896C308.03 169.258 308.009 169.62 307.967 169.979C307.705 172.372 306.567 174.582 304.774 176.187C302.98 177.792 300.656 178.677 298.249 178.673C259.949 184.738 228.557 187.772 195.175 187.772Z" fill="#6750A4"/>
<path d="M200.531 207.114H180.272C177.694 207.111 175.222 206.086 173.399 204.263C171.575 202.441 170.55 199.969 170.547 197.391V123.809C170.55 121.231 171.575 118.76 173.399 116.937C175.222 115.114 177.694 114.089 180.272 114.086H200.531C203.11 114.089 205.582 115.114 207.405 116.937C209.229 118.76 210.254 121.231 210.257 123.809V197.391C210.254 199.969 209.229 202.441 207.405 204.263C205.582 206.086 203.11 207.112 200.531 207.114Z" fill="#21005D"/>
<path d="M246.527 100.006C246.38 98.6262 246.122 97.2608 245.754 95.9231C245.358 94.5827 244.856 93.2759 244.253 92.0148C242.091 87.3784 238.446 83.5943 233.893 81.261C228.242 78.4799 221.778 78.2523 215.702 79.5923C210.595 80.736 205.799 82.9808 201.649 86.1698C199.498 87.7903 197.532 89.6437 195.788 91.6961C193.988 93.8556 190.639 99.7885 190.398 100.338C188.504 96.0403 185.788 92.1551 182.401 88.9013C178.464 85.1656 173.765 82.3263 168.626 80.5787C165.894 79.6585 163.058 79.0822 160.183 78.8631C157.142 78.6103 154.079 78.8774 151.127 79.653C145.825 81.1376 141.238 84.4895 138.214 89.0901C135.332 93.3659 133.917 98.4615 134.181 103.611C134.327 106.21 134.887 108.77 135.842 111.193C136.353 112.504 136.96 113.776 137.657 114.999C138.378 116.208 139.185 117.363 140.07 118.456C143.545 122.719 148.225 125.835 153.499 127.396C159.13 129.136 165.102 129.193 170.892 128.376C176.838 127.537 182.561 125.613 188.161 123.505C188.908 123.224 189.652 122.935 190.397 122.649C195.375 124.563 200.396 126.41 205.607 127.582C211.47 128.997 217.555 129.241 223.512 128.3C229.065 127.389 234.227 124.867 238.36 121.049C242.183 117.452 244.859 112.806 246.052 107.695C246.64 105.177 246.801 102.577 246.527 100.006ZM169.346 122.651C166.132 123.063 162.881 123.082 159.663 122.708C157.356 122.374 155.096 121.772 152.929 120.916C147.82 118.789 143.747 114.747 141.583 109.654C140.936 108.049 140.476 106.375 140.21 104.665C140.04 103.143 140.039 101.607 140.209 100.086C140.461 98.485 140.893 96.9176 141.496 95.4135C142.149 93.9507 142.96 92.5634 143.914 91.2763C144.839 90.1247 145.884 89.0751 147.032 88.1452C148.12 87.3406 149.291 86.6546 150.525 86.099C151.997 85.5239 153.53 85.1142 155.093 84.8773C157.21 84.643 159.348 84.6597 161.462 84.9271C163.977 85.3153 166.438 85.9937 168.797 86.9486C171.306 88.0372 173.677 89.4193 175.861 91.0658C177.881 92.666 179.713 94.4914 181.319 96.5064C182.91 98.6219 184.245 100.919 185.294 103.349C186.314 105.884 187.03 108.531 187.428 111.234L187.433 111.274C187.277 112.632 187.2 113.998 187.2 115.365C187.201 115.892 187.224 116.418 187.25 116.943C187 117.184 186.792 117.465 186.633 117.774C182.505 119.393 178.272 120.735 173.965 121.79C172.438 122.143 170.899 122.43 169.346 122.651ZM240.597 104.665C240.332 106.375 239.871 108.049 239.224 109.655C237.07 114.754 232.994 118.8 227.878 120.916C225.711 121.772 223.451 122.374 221.145 122.708C217.921 123.083 214.663 123.063 211.444 122.649C205.725 121.832 200.209 120.027 194.814 118.014C194.592 117.931 194.371 117.843 194.149 117.76C193.999 117.455 193.799 117.177 193.558 116.938C193.654 115.03 193.594 113.118 193.381 111.219C193.78 108.521 194.496 105.879 195.513 103.349C196.563 100.919 197.897 98.6221 199.488 96.5067C201.095 94.4915 202.926 92.6661 204.946 91.0658C207.13 89.4193 209.501 88.0372 212.01 86.9486C214.369 85.9937 216.831 85.3153 219.346 84.9271C221.459 84.6597 223.597 84.643 225.714 84.8773C227.278 85.1142 228.81 85.5239 230.283 86.099C231.517 86.6547 232.688 87.3407 233.776 88.1454C234.924 89.0752 235.969 90.1249 236.894 91.2765C237.848 92.5635 238.658 93.9508 239.311 95.4136C239.915 96.9176 240.346 98.485 240.599 100.086C240.768 101.607 240.767 103.143 240.597 104.665Z" fill="#21005D"/>
<path d="M128.738 210.373C130.702 210.373 132.294 208.782 132.294 206.818C132.294 204.855 130.702 203.263 128.738 203.263C126.774 203.263 125.181 204.855 125.181 206.818C125.181 208.782 126.774 210.373 128.738 210.373Z" fill="#6750A4"/>
<path d="M154.224 201.485C156.188 201.485 157.78 199.894 157.78 197.93C157.78 195.967 156.188 194.375 154.224 194.375C152.26 194.375 150.667 195.967 150.667 197.93C150.667 199.894 152.26 201.485 154.224 201.485Z" fill="#6750A4"/>
<path d="M142.962 229.335C144.926 229.335 146.518 227.743 146.518 225.779C146.518 223.816 144.926 222.224 142.962 222.224C140.998 222.224 139.406 223.816 139.406 225.779C139.406 227.743 140.998 229.335 142.962 229.335Z" fill="#6750A4"/>
<path d="M248.462 210.373C250.426 210.373 252.018 208.782 252.018 206.818C252.018 204.855 250.426 203.263 248.462 203.263C246.498 203.263 244.906 204.855 244.906 206.818C244.906 208.782 246.498 210.373 248.462 210.373Z" fill="#6750A4"/>
<path d="M222.976 201.485C224.94 201.485 226.533 199.894 226.533 197.93C226.533 195.967 224.94 194.375 222.976 194.375C221.012 194.375 219.42 195.967 219.42 197.93C219.42 199.894 221.012 201.485 222.976 201.485Z" fill="#6750A4"/>
<path d="M234.238 229.335C236.202 229.335 237.794 227.743 237.794 225.779C237.794 223.816 236.202 222.224 234.238 222.224C232.274 222.224 230.681 223.816 230.681 225.779C230.681 227.743 232.274 229.335 234.238 229.335Z" fill="#6750A4"/>
<path d="M251.426 272.59C253.39 272.59 254.982 270.998 254.982 269.035C254.982 267.071 253.39 265.48 251.426 265.48C249.462 265.48 247.87 267.071 247.87 269.035C247.87 270.998 249.462 272.59 251.426 272.59Z" fill="#6750A4"/>
<path d="M260.316 247.111C262.28 247.111 263.872 245.519 263.872 243.556C263.872 241.592 262.28 240 260.316 240C258.352 240 256.76 241.592 256.76 243.556C256.76 245.519 258.352 247.111 260.316 247.111Z" fill="#6750A4"/>
<path d="M232.46 258.369C234.424 258.369 236.016 256.777 236.016 254.814C236.016 252.85 234.424 251.259 232.46 251.259C230.495 251.259 228.903 252.85 228.903 254.814C228.903 256.777 230.495 258.369 232.46 258.369Z" fill="#6750A4"/>
<path d="M149.482 272.59C151.446 272.59 153.038 270.998 153.038 269.035C153.038 267.071 151.446 265.48 149.482 265.48C147.518 265.48 145.926 267.071 145.926 269.035C145.926 270.998 147.518 272.59 149.482 272.59Z" fill="#6750A4"/>
<path d="M158.372 247.111C160.336 247.111 161.929 245.519 161.929 243.556C161.929 241.592 160.336 240 158.372 240C156.408 240 154.816 241.592 154.816 243.556C154.816 245.519 156.408 247.111 158.372 247.111Z" fill="#6750A4"/>
<path d="M130.516 258.369C132.48 258.369 134.072 256.777 134.072 254.814C134.072 252.85 132.48 251.259 130.516 251.259C128.552 251.259 126.96 252.85 126.96 254.814C126.96 256.777 128.552 258.369 130.516 258.369Z" fill="#6750A4"/>
<path d="M232.693 21.4953C234.039 22.0573 235.508 22.2631 236.957 22.0929C238.407 21.9227 239.788 21.3822 240.967 20.5235C243.975 18.2811 245.102 14.3667 246.046 10.7373L248.836 0L244.125 2.85975C240.736 4.91593 237.27 7.04023 234.824 10.1619C232.378 13.2835 231.141 17.6579 232.753 21.2804" fill="#F2F2F2"/>
<path d="M106.681 113.214C107.591 112.073 108.191 110.717 108.424 109.277C108.657 107.837 108.516 106.361 108.013 104.991C106.679 101.486 103.222 99.3294 99.9894 97.4274L90.4239 91.8044L91.8846 97.1178C92.9347 100.939 94.029 104.853 96.3621 108.06C98.6953 111.267 102.565 113.654 106.491 113.097" fill="#F2F2F2"/>
<path d="M331.313 278.532C332.223 277.391 332.823 276.035 333.056 274.595C333.289 273.155 333.148 271.679 332.645 270.31C331.311 266.804 327.854 264.648 324.621 262.746L315.056 257.123L316.517 262.436C317.567 266.257 318.661 270.172 320.994 273.379C323.327 276.585 327.197 278.973 331.123 278.415" fill="#F2F2F2"/>
<path d="M150.667 68.7565C153.286 68.7565 155.409 66.6341 155.409 64.0161C155.409 61.3981 153.286 59.2758 150.667 59.2758C148.049 59.2758 145.926 61.3981 145.926 64.0161C145.926 66.6341 148.049 68.7565 150.667 68.7565Z" fill="#FD6584"/>
<path d="M24.423 208.596C27.0417 208.596 29.1646 206.473 29.1646 203.855C29.1646 201.237 27.0417 199.115 24.423 199.115C21.8043 199.115 19.6814 201.237 19.6814 203.855C19.6814 206.473 21.8043 208.596 24.423 208.596Z" fill="#FD6584"/>
<path d="M350.406 170.081C353.025 170.081 355.148 167.958 355.148 165.34C355.148 162.722 353.025 160.6 350.406 160.6C347.787 160.6 345.665 162.722 345.665 165.34C345.665 167.958 347.787 170.081 350.406 170.081Z" fill="#FD6584"/>
<path d="M19.6814 89.4953C22.3001 89.4953 24.423 87.373 24.423 84.755C24.423 82.137 22.3001 80.0147 19.6814 80.0147C17.0627 80.0147 14.9398 82.137 14.9398 84.755C14.9398 87.373 17.0627 89.4953 19.6814 89.4953Z" fill="#E6E6E6"/>
<path d="M313.066 224.594C315.685 224.594 317.808 222.472 317.808 219.854C317.808 217.236 315.685 215.114 313.066 215.114C310.448 215.114 308.325 217.236 308.325 219.854C308.325 222.472 310.448 224.594 313.066 224.594Z" fill="#E6E6E6"/>
<path d="M322.549 80.6072C325.168 80.6072 327.291 78.4849 327.291 75.8669C327.291 73.2489 325.168 71.1266 322.549 71.1266C319.931 71.1266 317.808 73.2489 317.808 75.8669C317.808 78.4849 319.931 80.6072 322.549 80.6072Z" fill="#E6E6E6"/>
<path d="M114.647 156C114.238 156.648 113.244 156.554 112.686 156.149C111.911 155.586 112.162 154.502 112.695 153.862C114.391 151.827 117.195 153.976 117.573 155.997C117.714 156.982 117.562 157.987 117.137 158.887C116.711 159.786 116.031 160.542 115.18 161.059C113.246 162.205 110.733 161.63 109.07 160.258C105.601 157.397 106.545 151.668 110.399 149.598C112.858 148.277 115.968 148.857 118.39 149.964C121.118 151.21 123.463 153.119 125.985 154.71C131.519 158.173 137.778 160.31 144.275 160.954C145.412 161.07 145.404 159.292 144.275 159.177C140.675 158.804 137.141 157.954 133.766 156.647C130.426 155.294 127.257 153.554 124.322 151.465C121.352 149.43 118.25 147.453 114.575 147.117C113.092 146.944 111.59 147.166 110.22 147.762C108.851 148.357 107.664 149.305 106.78 150.508C105.994 151.584 105.467 152.828 105.242 154.142C105.017 155.455 105.099 156.803 105.483 158.08C105.944 159.415 106.752 160.604 107.823 161.526C108.893 162.447 110.189 163.069 111.578 163.327C112.916 163.58 114.299 163.409 115.534 162.838C116.77 162.267 117.796 161.326 118.471 160.144C119.823 157.805 119.779 154.663 117.736 152.724C117.151 152.129 116.417 151.7 115.612 151.481C114.806 151.262 113.956 151.261 113.15 151.477C112.407 151.728 111.753 152.19 111.269 152.807C110.784 153.423 110.49 154.168 110.422 154.949C110.224 157.985 114.535 159.503 116.183 156.897C116.796 155.927 115.258 155.034 114.647 156Z" fill="#21005D"/>
<path d="M266.701 156C267.111 156.648 268.105 156.554 268.663 156.149C269.438 155.586 269.187 154.502 268.653 153.862C266.958 151.827 264.154 153.976 263.776 155.996C263.635 156.982 263.787 157.987 264.212 158.887C264.637 159.786 265.318 160.542 266.168 161.059C268.103 162.205 270.615 161.63 272.279 160.258C275.748 157.397 274.804 151.668 270.95 149.598C268.49 148.277 265.381 148.857 262.958 149.964C260.231 151.21 257.886 153.119 255.364 154.71C249.83 158.173 243.57 160.31 237.074 160.954C235.936 161.07 235.944 159.292 237.074 159.177C240.674 158.804 244.208 157.954 247.583 156.647C250.923 155.294 254.092 153.554 257.027 151.465C259.996 149.43 263.099 147.453 266.774 147.117C268.257 146.944 269.759 147.166 271.128 147.762C272.497 148.357 273.684 149.305 274.568 150.508C275.355 151.584 275.881 152.828 276.106 154.142C276.332 155.455 276.249 156.803 275.866 158.08C275.404 159.415 274.597 160.604 273.526 161.526C272.455 162.447 271.159 163.069 269.77 163.327C268.433 163.58 267.05 163.409 265.815 162.838C264.579 162.267 263.553 161.326 262.878 160.144C261.526 157.805 261.57 154.663 263.613 152.724C264.198 152.129 264.931 151.7 265.737 151.481C266.543 151.262 267.392 151.261 268.199 151.477C268.942 151.728 269.596 152.19 270.08 152.807C270.565 153.423 270.859 154.168 270.927 154.949C271.124 157.985 266.814 159.503 265.166 156.897C264.553 155.927 266.091 155.034 266.701 156Z" fill="#21005D"/>
<path d="M52.7705 21.5464L50.4217 24.4923L42.1156 19.5801L44.4638 16.6342L52.7705 21.5464Z" fill="#E4E4E4"/>
<path d="M61.4373 34.2031L63.5115 37.298L54.7855 41.6371L52.7113 38.5428L61.4373 34.2031Z" fill="#E4E4E4"/>
<path d="M70.4701 20.7487L74.6152 20.8955L74.2026 29.5666L70.0569 29.4203L70.4701 20.7487Z" fill="#E4E4E4"/>
<path d="M346.155 202.864L343.806 205.809L335.5 200.897L337.849 197.951L346.155 202.864Z" fill="#E4E4E4"/>
<path d="M354.822 215.52L356.896 218.615L348.17 222.954L346.096 219.859L354.822 215.52Z" fill="#E4E4E4"/>
<path d="M363.855 202.066L368 202.213L367.587 210.884L363.442 210.737L363.855 202.066Z" fill="#E4E4E4"/>
</g>
<defs>
<clipPath id="clip0_15_13179">
<rect width="368" height="283" fill="white"/>
</clipPath>
</defs>
</svg>
